<svg width="833" height="409" viewBox="0 0 833 409" fill="none" xmlns="http://www.w3.org/2000/svg">
<g id="Group 1">
<path id="Vector" d="M416.58 408.28C646.369 408.28 832.65 390.595 832.65 368.78C832.65 346.965 646.369 329.28 416.58 329.28C186.791 329.28 0.51001 346.965 0.51001 368.78C0.51001 390.595 186.791 408.28 416.58 408.28Z" fill="#6B705C"/>
<path id="Vector_2" d="M705.96 98.72C668.66 115.43 646.19 53.87 646.19 53.87C646.19 53.87 634.52 43.08 600.36 45.78C566.2 48.48 510.94 39.48 510.94 39.48C510.94 39.48 490.27 58.82 463.76 60.14C463.76 60.14 444.44 66.88 441.76 72.28C439.57 76.66 435.59 85.81 434.17 89.06C434.088 89.3024 433.991 89.5395 433.88 89.77C433.74 90.08 433.68 90.25 433.68 90.25L432.57 90.77L410.31 101.46L379.76 110.01L360.43 112.25L327.63 89.52C327.63 89.52 331.42 85.98 336.99 81.52C345.5 74.77 358.11 65.95 367.63 64.59C367.63 64.59 380.55 56.42 389.2 47.97C392.41 44.82 426.03 29.49 454.93 18.42C479.018 9.19463 504.196 3.11449 529.84 0.330017L627.33 20.92C638.041 23.1779 648.256 27.3552 657.48 33.25C683.93 50.28 734.06 86.14 705.96 98.72Z" fill="#FFC1C7"/>
<g id="Group" opacity="0.1">
<path id="Vector_3" opacity="0.1" d="M332.13 92.25C332.13 92.25 335.92 88.7 341.49 84.25C350 77.5 362.61 68.68 372.13 67.32C372.13 67.32 385.05 59.15 393.7 50.7C396.91 47.54 430.53 32.22 459.43 21.15C483.521 11.9473 508.699 5.89389 534.34 3.14001L631.83 23.72C642.539 25.9796 652.751 30.1605 661.97 36.06C663.523 37.0534 665.143 38.1034 666.83 39.21C663.68 37.09 660.68 35.12 657.93 33.36C648.709 27.4653 638.498 23.288 627.79 21.03L530.3 0.440002C504.656 3.22326 479.478 9.30348 455.39 18.53C426.48 29.6 392.86 44.93 389.66 48.08C381 56.53 368.09 64.7 368.09 64.7C358.57 66.06 345.95 74.88 337.45 81.63C331.88 86.06 328.09 89.63 328.09 89.63L360.89 112.36H361.02L332.13 92.25Z" fill="black"/>
<path id="Vector_4" opacity="0.1" d="M650.72 56.56C649.492 55.5608 648.149 54.7115 646.72 54.03C647.62 56.41 659 85.89 678.41 97.21C660.71 83.92 650.72 56.56 650.72 56.56Z" fill="black"/>
</g>
<path id="Vector_5" d="M581.65 201.01C581.526 201.527 581.376 202.038 581.2 202.54C581.12 202.8 581.01 203.06 580.92 203.31C580.666 203.935 580.379 204.546 580.06 205.14C579.93 205.41 579.78 205.68 579.65 205.94C579.618 206 579.581 206.056 579.54 206.11C579.4 206.37 579.26 206.61 579.11 206.85C578.11 208.55 576.95 210.17 575.84 211.85C575.47 212.39 575.1 212.94 574.75 213.5C574.687 213.614 574.617 213.725 574.54 213.83C574.35 214.14 574.15 214.47 573.97 214.83C573.79 215.19 573.65 215.37 573.51 215.64C573.37 215.91 573.35 215.92 573.28 216.06L572.85 216.89C572.348 217.932 571.95 219.021 571.66 220.14C570.12 226.49 572.84 233 575.05 239.14C579.51 251.6 581.97 265.54 577.75 277.98C577.65 278.27 577.55 278.57 577.44 278.87C577.33 279.17 577.14 279.66 576.98 280.05C576.74 280.65 576.47 281.24 576.17 281.83C573.89 286.27 569.98 290.26 565.17 289.83C558.56 289.25 555.35 281.15 549.33 278.39C544.1 275.99 537.49 277.95 532.56 274.99C532.971 273.642 533.531 272.344 534.23 271.12C535.12 269.48 536.23 267.91 537.23 266.35C538.908 264.046 540.254 261.518 541.23 258.84C541.422 258.243 541.579 257.635 541.7 257.02C541.706 256.974 541.706 256.926 541.7 256.88C541.75 256.57 541.81 256.28 541.85 255.97C541.89 255.66 541.93 255.38 541.96 255.06C541.965 255.007 541.965 254.953 541.96 254.9C541.96 254.55 541.96 254.2 542.03 253.84C542.04 250.461 541.705 247.091 541.03 243.78C539.783 236.26 538.53 228.74 537.27 221.22C536.35 215.72 535.45 209.96 537.15 204.65C537.28 204.27 537.42 203.89 537.56 203.52C537.7 203.15 537.87 202.77 538.04 202.41C539.022 200.364 540.18 198.406 541.5 196.56C544.673 191.893 548.077 187.377 551.71 183.01C554.17 180.01 556.81 177.01 557.71 173.27C557.807 172.909 557.881 172.541 557.93 172.17C558.51 168.56 557.49 164.96 556.29 161.35C556.137 160.93 555.997 160.51 555.87 160.09C555.45 158.85 555.03 157.6 554.67 156.33C554.55 155.92 554.44 155.5 554.33 155.08C554.117 154.239 553.947 153.388 553.82 152.53C553.687 151.683 553.613 150.827 553.6 149.97C553.6 149.57 553.6 149.16 553.6 148.76C553.6 148.36 553.6 148.16 553.68 147.85C553.76 147.54 553.77 147.21 553.82 146.85C553.87 146.49 553.9 146.37 553.95 146.13C554 145.89 554.1 145.4 554.2 145.05C554.257 144.762 554.334 144.478 554.43 144.2C554.48 143.97 554.55 143.74 554.61 143.52L554.87 142.72L555.28 141.56C555.41 141.18 555.56 140.79 555.71 140.41C556.46 138.41 557.32 136.41 558.07 134.49C558.492 133.38 558.855 132.248 559.16 131.1C559.16 130.89 559.27 130.66 559.32 130.44C559.382 130.219 559.432 129.996 559.47 129.77C559.54 129.493 559.593 129.213 559.63 128.93C559.7 128.56 559.77 128.17 559.81 127.79C559.85 127.41 559.89 127.02 559.92 126.63C559.95 126.24 559.92 125.86 559.92 125.48C559.937 124.125 559.745 122.776 559.35 121.48C559.201 120.951 559.007 120.436 558.77 119.94C558.596 119.598 558.406 119.264 558.2 118.94C556.92 116.86 554.93 115.27 553.77 113.1C553.086 111.768 552.742 110.287 552.77 108.79C552.766 108.382 552.793 107.974 552.85 107.57C552.91 107.156 553.004 106.748 553.13 106.35C553.171 106.19 553.225 106.032 553.29 105.88C553.363 105.713 553.433 105.553 553.5 105.4C553.598 105.2 553.708 105.006 553.83 104.82C553.93 104.69 554.02 104.55 554.12 104.43C555.18 103.09 556.88 102.43 559.21 103.11L559.78 103.3C561.112 103.728 562.399 104.287 563.62 104.97C567.33 107.085 570.489 110.045 572.84 113.61C576.94 119.79 578.69 127.27 579.2 134.67C579.51 137.823 579.351 141.004 578.73 144.11C578.73 144.24 578.66 144.39 578.64 144.52C578.56 144.82 578.49 145.12 578.39 145.41C577.783 147.225 577.082 149.008 576.29 150.75C575.648 152.195 575.159 153.703 574.83 155.25C573.89 160.39 575.94 165.52 577.6 170.47C579.173 175.169 580.422 179.97 581.34 184.84C582.5 190.21 583.06 195.84 581.65 201.01Z" fill="#965D7B"/>
<g id="Group_2" opacity="0.1">
<path id="Vector_6" opacity="0.1" d="M576.43 150.77C577.227 149.022 577.931 147.233 578.54 145.41C578.67 144.98 578.79 144.55 578.89 144.11C577.869 146.251 577.046 148.48 576.43 150.77Z" fill="black"/>
<path id="Vector_7" opacity="0.1" d="M558.41 118.94C560.63 122.54 560.41 126.94 559.31 131.17C559.39 130.95 559.48 130.74 559.56 130.52C561.47 125.52 562.56 119.52 559.76 114.9C558.47 112.82 556.47 111.22 555.32 109.06C554.587 107.631 554.243 106.034 554.32 104.43C552.63 106.53 552.51 110.29 554.02 113.11C555.12 115.27 557.12 116.86 558.41 118.94Z" fill="black"/>
<path id="Vector_8" opacity="0.1" d="M573.06 216.14C573.01 216.36 572.97 216.58 572.93 216.81C575.13 212.14 579.01 208.18 580.93 203.34C581.334 202.325 581.652 201.278 581.88 200.21C579.31 205.72 574.44 210.19 573.06 216.14Z" fill="black"/>
<path id="Vector_9" opacity="0.1" d="M578.33 276.05C576.27 281.13 571.98 286.3 566.51 285.82C559.9 285.25 556.7 277.15 550.67 274.38C545.55 272.03 539.11 273.85 534.22 271.16C533.525 272.386 532.965 273.683 532.55 275.03C537.48 278.03 544.09 276.03 549.32 278.42C555.32 281.19 558.55 289.3 565.16 289.87C570.63 290.34 574.92 285.17 576.98 280.09C577.532 278.719 578.003 277.316 578.39 275.89L578.33 276.05Z" fill="black"/>
<path id="Vector_10" opacity="0.1" d="M541.11 243.82C541.84 248.2 542.56 252.75 541.7 257.06C542.036 256.339 542.326 255.597 542.57 254.84C544.11 250.01 543.29 244.78 542.46 239.78C541.213 232.26 539.96 224.737 538.7 217.21C537.89 212.32 537.09 207.21 538.12 202.44C537.778 203.171 537.481 203.923 537.23 204.69C535.53 210 536.44 215.75 537.35 221.25C538.61 228.783 539.863 236.307 541.11 243.82Z" fill="black"/>
<path id="Vector_11" opacity="0.1" d="M559.17 169.27C561.1 161.53 555.17 153.94 555.06 145.97C555.077 144.116 555.342 142.273 555.85 140.49C554.543 143.503 553.82 146.737 553.72 150.02C553.79 157.62 559.2 164.87 558.03 172.25C558.52 171.302 558.902 170.303 559.17 169.27Z" fill="black"/>
</g>
<path id="Vector_12" d="M775.16 281.24C763.93 318.53 738.76 332.91 738.76 332.91C738.76 332.91 711.35 358.08 705.5 371.14C699.65 384.2 682.14 380.58 674.96 371.14C667.78 361.7 645.3 365.31 645.3 365.31L611.14 368C611.14 368 549.24 376.21 528.46 361.83C507.68 347.45 493.86 347.34 493.86 347.34C493.86 347.34 477.68 354.52 459.27 355.43C450.524 356.013 441.834 357.243 433.27 359.11C428.5 360.11 424.33 361.11 421.34 361.82C418.35 362.53 416.57 363.06 416.57 363.06L370.81 358.45L327.59 354.08L304.23 350.92L298.1 337.58L292.2 324.76L290.2 320.38L293 274.57H366.7C366.7 274.57 443.56 278.57 453.43 278.57H455.67C455.67 278.57 467.96 273.65 488.02 285.75C490.578 287.184 493.254 288.396 496.02 289.37C527.9 301.28 617.47 316.76 617.47 316.76L675.47 313.16C675.47 313.16 708.08 301.28 726.47 293.45C732.6 290.83 737.16 288.66 738.38 287.55C743.25 283.04 786.39 243.94 775.16 281.24Z" fill="#FFC1C7"/>
<path id="Vector_13" opacity="0.1" d="M318.33 319.6L321.88 332.24L309.74 338.82L298.11 337.54L292.21 324.72L290.21 320.34L293.01 274.53H366.66C351.29 275.91 318.33 319.6 318.33 319.6Z" fill="black"/>
<path id="Vector_14" d="M316.98 319.6L320.53 332.24L308.4 338.82L277.73 335.45L261.21 322.14C234.21 278.33 201.56 278.14 201.56 278.14C201.56 278.14 205.61 272.23 205.44 266.84C205.27 261.45 211.38 247.63 211.38 247.63L211.96 247.35C214.02 246.35 221.01 242.89 221.45 242.74C221.45 242.74 360.12 265.15 362.82 266C363.517 266.289 364.088 266.818 364.43 267.49C366 269.95 366.7 274.49 366.7 274.49C352.06 273.14 316.98 319.6 316.98 319.6Z" fill="#565988"/>
<path id="Vector_15" d="M480.84 132.5C476.766 132.415 472.691 132.672 468.66 133.27C461.95 134.36 455.52 136.91 458.37 142.84C463.76 154.07 429.61 173.84 429.61 173.84L381.97 204.4L352.31 159.46L367.6 123.06L410.28 101.49L433.66 90.27C433.66 90.27 442.92 93.64 451.06 93.45C454.82 93.37 458.35 92.53 460.62 90.27C467.8 83.08 480.84 132.5 480.84 132.5Z" fill="#FFC1C7"/>
<path id="Vector_16" opacity="0.1" d="M480.84 132.5C476.766 132.415 472.691 132.672 468.66 133.27C463.115 129.376 458.592 124.202 455.472 118.188C452.353 112.173 450.729 105.495 450.74 98.72C450.735 96.9584 450.842 95.1981 451.06 93.45C454.82 93.37 458.35 92.53 460.62 90.27C467.8 83.08 480.84 132.5 480.84 132.5Z" fill="black"/>
<path id="Vector_17" d="M537.9 98.72C537.901 104.267 536.81 109.76 534.688 114.885C532.567 120.011 529.457 124.668 525.535 128.591C521.614 132.514 516.958 135.627 511.834 137.751C506.71 139.875 501.217 140.969 495.67 140.97C493.713 140.971 491.758 140.834 489.82 140.56C479.217 139.09 469.568 133.65 462.822 125.339C456.077 117.028 452.738 106.466 453.481 95.7881C454.224 85.1099 458.993 75.112 466.825 67.8153C474.656 60.5185 484.966 56.4671 495.67 56.48C497.287 56.4844 498.903 56.5745 500.51 56.75C510.804 57.9443 520.301 62.8795 527.194 70.6175C534.088 78.3555 537.898 88.3567 537.9 98.72Z" fill="#FFC1C7"/>
<path id="Vector_18" opacity="0.1" d="M726.63 294.27C726.63 299.63 698.14 310.52 673.57 318.92C656.336 324.666 638.217 327.297 620.06 326.69C618.592 326.614 617.121 326.746 615.69 327.08C608.95 328.87 521.33 308.2 521.33 308.2C521.33 308.2 503.44 299.9 496.04 289.35C527.92 301.26 617.49 316.74 617.49 316.74L675.49 313.14C675.49 313.14 708.1 301.26 726.49 293.43C726.613 293.692 726.661 293.982 726.63 294.27Z" fill="black"/>
<path id="Vector_19" d="M462.41 146.98C462.41 146.98 468.7 163.51 476.79 167.55C484.88 171.59 501.05 187.77 499.71 208.89C499.71 208.89 497.01 214.74 505.55 226.89C514.09 239.04 534.76 265.53 534.76 265.53C534.76 265.53 576.99 280.36 590.47 289.35H590.52C601.119 290.872 611.536 293.469 621.61 297.1C627.37 299.1 634.42 301.03 640.8 301.03C654.73 301.03 726.63 282.16 726.63 291.59C726.63 296.96 698.14 307.85 673.56 316.25C656.327 321.982 638.211 324.603 620.06 323.99C618.592 323.919 617.122 324.051 615.69 324.38C608.95 326.17 521.32 305.5 521.32 305.5C521.32 305.5 502.85 296.97 495.66 286.14C488.47 275.31 470.06 261.47 470.06 261.47C470.06 261.47 449.84 227.32 448.06 219.23C448.06 219.23 437.73 213.39 410.76 222.37C383.79 231.35 404.89 202.14 404.89 202.14L435 167.14L462.41 146.98Z" fill="#FFC1C7"/>
<path id="Vector_20" opacity="0.1" d="M470.95 159.47L461.56 136.63C452.812 142.184 444.665 148.632 437.25 155.87C426.01 167.1 418.37 173.87 412.98 175.19C407.59 176.51 389.17 185.89 381.53 166.61C373.89 147.33 377.03 134.3 384.22 128.01C391.41 121.72 440.06 92.14 440.06 92.14L433.67 91.65C433.67 91.65 389.19 107.22 375.26 100.11C375.26 100.11 350.54 104.24 345.15 95.25C339.76 86.26 334.67 84.84 334.67 84.84L302.01 128.95L313.7 226.46H343.8L376.15 213.88L419.29 210.28C419.29 210.28 435.47 195 437.72 187.81C439.97 180.62 457.06 157.22 470.95 159.47Z" fill="black"/>
<path id="Vector_21" d="M470.95 158.14L461.56 135.3C452.812 140.854 444.665 147.302 437.25 154.54C426.01 165.78 418.37 172.54 412.98 173.86C407.59 175.18 389.17 184.56 381.53 165.28C373.89 146 377.03 132.97 384.22 126.68C391.41 120.39 440.06 92.14 440.06 92.14L433.67 90.31C433.67 90.31 389.19 105.87 375.26 98.76C375.26 98.76 350.54 102.89 345.15 93.9C339.76 84.91 334.67 83.49 334.67 83.49L302.01 127.6L313.7 225.11H343.8L376.15 212.53L419.29 208.93C419.29 208.93 435.47 193.66 437.72 186.47C439.97 179.28 457.06 155.87 470.95 158.14Z" fill="#565988"/>
<path id="Vector_22" opacity="0.1" d="M364.43 267.51C363.91 269.99 363.49 271.58 363.49 271.58C363.49 271.58 361.64 270.9 338.9 275.29C316.16 279.68 293.57 275.29 293.57 275.29C280.363 273.759 267.291 271.221 254.47 267.7C234.93 262.14 209.31 255.56 211.47 248.7C211.61 248.3 211.75 247.85 211.92 247.41C213.98 246.41 220.97 242.95 221.41 242.8C221.41 242.8 360.08 265.21 362.78 266.06C363.485 266.331 364.07 266.845 364.43 267.51Z" fill="black"/>
<path id="Vector_23" opacity="0.1" d="M461.56 136.63L469.36 154.26C469.36 154.26 457.36 147.89 442.02 174.01C426.68 200.13 424.66 203.84 424.66 203.84C424.66 203.84 413.88 211.2 416.58 220.58C416.58 220.58 384.64 231.58 363.58 224.31C363.58 224.31 358.86 238.55 359.37 248.16C359.685 253.291 359.711 258.436 359.45 263.57C359.45 263.57 365.45 259.02 342.69 263.41C319.93 267.8 297.36 266.52 297.36 266.52C284.942 264.494 272.649 261.767 260.54 258.35C240.99 252.79 210.66 254.22 212.85 247.35C215.04 240.48 222.29 227.47 222.29 227.47C222.29 227.47 227.51 224.47 227.29 221.57C227.07 218.67 236.9 210.28 236.9 210.28C236.9 210.28 242.96 205.23 242.12 201.01C241.28 196.79 248.02 189.89 248.02 189.89L260.83 164.79C260.83 164.79 271.61 141.36 279.03 140.35C286.45 139.34 300.09 117.77 300.09 117.77C300.09 117.77 324.35 98.23 324.52 94.18C324.69 90.13 336.65 82.89 336.65 82.89C336.65 82.89 338.58 99.43 354.65 100.11C370.72 100.79 391.95 100.11 391.95 100.11L433.64 90.31C433.64 90.31 415.38 106.82 411.16 108C406.94 109.18 394.26 118.28 387.8 120C381.34 121.72 368.21 130.54 368.72 143.14C369.23 155.74 373.61 162.14 373.61 162.14C373.61 162.14 386.75 187.14 399.89 184.14C399.89 184.14 414.57 184.93 420.45 176.22C426.33 167.51 461.56 136.63 461.56 136.63Z" fill="black"/>
<path id="Vector_24" opacity="0.1" d="M435 88.92L433.86 89.79L432.55 90.79L410.29 101.48L379.74 110.03L360.41 112.27L327.61 89.54C327.61 89.54 331.4 86 336.97 81.54C337.87 85.54 341.54 96.78 354.68 97.33C370.73 98.02 391.98 97.33 391.98 97.33L434.16 89.04L435 88.92Z" fill="black"/>
<path id="Vector_25" d="M461.56 135.28L469.36 154.28C469.36 154.28 456.01 146.57 440.67 172.69C425.33 198.81 423.32 202.51 423.32 202.51C423.32 202.51 413.88 211.22 416.58 220.6C416.58 220.6 387.42 235.37 366.36 228.12C366.36 228.12 365.86 236.89 366.36 246.49C366.86 256.09 363.5 268.9 363.5 268.9C363.5 268.9 361.64 268.23 338.89 272.61C316.14 276.99 293.57 272.61 293.57 272.61C280.362 271.085 267.291 268.551 254.47 265.03C234.93 259.47 209.31 252.89 211.47 246.03C213.63 239.17 220.91 226.14 220.91 226.14C220.91 226.14 226.13 223.14 225.97 220.24C225.81 217.34 235.57 208.95 235.57 208.95C235.57 208.95 241.64 203.95 240.79 199.69C239.94 195.43 246.69 188.56 246.69 188.56L259.5 163.46C259.5 163.46 270.28 140.03 277.7 139.02C285.12 138.01 298.76 116.44 298.76 116.44C298.76 116.44 323.06 96.84 323.22 92.79C323.38 88.74 335.36 81.5 335.36 81.5C335.36 81.5 337.28 98.04 353.36 98.72C369.44 99.4 390.67 98.72 390.67 98.72L433.67 90.27C433.67 90.27 414.07 105.43 409.86 106.61C405.65 107.79 392.95 116.89 386.49 118.61C380.03 120.33 366.89 129.23 367.39 141.87C367.89 154.51 372.28 160.87 372.28 160.87C372.28 160.87 385.42 185.81 398.57 182.78C398.57 182.78 413.24 183.56 419.12 174.86C425 166.16 461.56 135.28 461.56 135.28Z" fill="#E8F4FF"/>
<path id="Vector_26" opacity="0.1" d="M330.81 196.42C330.81 196.42 347.32 227.09 354.9 230.42C362.48 233.75 360.97 228.06 360.97 228.06C360.97 228.06 333.17 203.14 330.81 196.42Z" fill="black"/>
<path id="Vector_27" opacity="0.1" d="M298.96 219.68C298.96 219.68 315.14 245.46 327.1 245.46L298.96 219.68Z" fill="black"/>
<path id="Vector_28" opacity="0.1" d="M263.4 187.83C263.4 187.83 282.28 247.48 316.99 252.2C316.99 252.2 271.66 218.84 263.4 187.83Z" fill="black"/>
<path id="Vector_29" opacity="0.1" d="M266.77 239.39C266.77 239.39 297.95 264.16 316.99 260.46C316.99 260.46 284.47 254.9 266.77 239.39Z" fill="black"/>
<path id="Vector_30" opacity="0.1" d="M243.63 281.89C243.63 281.89 274.8 306.66 293.85 302.95C293.85 302.95 261.32 297.39 243.63 281.89Z" fill="black"/>
<path id="Vector_31" opacity="0.1" d="M251.78 295.95C251.78 295.95 282.95 320.72 301.99 317.02C301.99 317.02 269.47 311.46 251.78 295.95Z" fill="black"/>
<path id="Vector_32" opacity="0.1" d="M256.49 273.14C256.49 273.14 287.66 297.88 306.7 294.14C306.7 294.14 274.18 288.61 256.49 273.14Z" fill="black"/>
<path id="Vector_33" opacity="0.1" d="M400.06 126.49L380.52 151.6L383.21 156.65L400.06 126.49Z" fill="black"/>
<path id="Vector_34" opacity="0.1" d="M537.9 98.72C537.901 104.267 536.81 109.76 534.688 114.885C532.567 120.011 529.457 124.668 525.535 128.591C521.614 132.514 516.958 135.627 511.834 137.751C506.71 139.875 501.217 140.969 495.67 140.97C493.713 140.971 491.758 140.834 489.82 140.56C490.443 139.849 490.965 139.055 491.37 138.2C492.62 134.71 487.37 131.07 489.02 127.73C489.87 125.95 492.16 125.5 494.13 125.45C496.1 125.4 498.29 125.45 499.72 124.09C501.37 122.5 501.14 119.88 501.56 117.63C502.22 114.21 504.62 111.36 507.23 109.03C509.84 106.7 512.76 104.69 515.01 102.03C518.46 97.93 520.08 92.57 520.51 87.23C520.79 83.78 520.51 80.11 518.69 77.23C516.69 74.14 513.26 72.4 510.12 70.5C507.199 68.8844 504.656 66.6652 502.66 63.99C501.38 62.11 500.1 59.18 500.51 56.8C510.796 57.9933 520.285 62.9213 527.178 70.6488C534.07 78.3763 537.886 88.3654 537.9 98.72Z" fill="black"/>
<path id="Vector_35" d="M561.06 100.79C560.895 101.491 560.628 102.165 560.27 102.79C560.17 102.97 560.05 103.16 559.94 103.35L559.33 104.28C558.369 105.482 557.732 106.911 557.48 108.43C557.36 110.28 558.37 111.97 559.03 113.73L559.14 114.04C559.23 114.289 559.307 114.543 559.37 114.8C559.778 116.539 559.641 118.361 558.98 120.02C558.257 121.871 557.188 123.568 555.83 125.02C553.28 127.77 550.07 129.85 547.5 132.57C545.58 134.57 544.03 136.94 542.13 138.96C537.63 143.72 531.33 146.45 524.92 147.75C519.902 148.654 514.808 149.066 509.71 148.98H505.36C504.679 149.021 503.997 148.915 503.36 148.67C502.625 148.177 501.991 147.549 501.49 146.82C498.87 143.82 494.49 143.25 490.49 142.91C490.448 142.529 490.485 142.143 490.599 141.776C490.712 141.41 490.9 141.071 491.15 140.78C491.797 140.013 492.348 139.17 492.79 138.27C494.05 134.77 488.79 131.14 490.45 127.78C490.603 127.464 490.814 127.18 491.07 126.94C491.238 126.772 491.422 126.621 491.62 126.49C492.822 125.815 494.181 125.47 495.56 125.49C496.3 125.49 497.07 125.49 497.82 125.4C499.01 125.353 500.151 124.91 501.06 124.14C502.71 122.57 502.48 119.94 502.9 117.7C503.56 114.26 505.96 111.42 508.57 109.1C511.18 106.78 514.1 104.76 516.35 102.1C519.8 98.01 521.42 92.63 521.85 87.31C522.13 83.86 521.85 80.18 520.03 77.31C518.29 74.61 515.43 72.94 512.64 71.31L511.46 70.61C509.293 69.3604 507.305 67.8231 505.55 66.04C505.005 65.3759 504.507 64.6741 504.06 63.94C502.81 62.1 501.57 59.27 501.88 56.94C501.892 56.7845 501.919 56.6305 501.96 56.48C502.55 53.91 505.09 53.88 507.5 53.56C508.15 53.48 508.79 53.41 509.44 53.37C510.399 53.315 511.361 53.315 512.32 53.37C516.429 53.5239 520.447 54.626 524.06 56.59C525.4 57.32 526.68 58.17 528.06 58.8C531.34 60.27 535.06 60.46 538.44 61.54C545.28 63.68 550.59 69.28 553.96 75.6C557.33 81.92 559.01 88.97 560.66 95.93C561.15 97.5008 561.286 99.1604 561.06 100.79Z" fill="#965D7B"/>
<path id="Vector_36" opacity="0.1" d="M433.28 359.07C433.071 359.98 432.734 360.855 432.28 361.67C432.28 361.67 427.82 361.83 421.28 361.78C412.35 361.71 399.59 361.25 389.28 359.43C383.132 358.544 376.917 358.209 370.71 358.43L327.49 354.06L304.13 350.9L292.13 324.74C299.07 325.12 305.05 324.85 305.05 324.85C318.32 312.27 330.67 314.29 337.41 319.75C344.15 325.21 356.74 329.56 357.63 329.56C358.23 329.56 378.1 329.98 390.88 330.24C400.78 330.387 410.489 332.985 419.14 337.8C434.06 346.14 434.28 354.86 433.28 359.07Z" fill="black"/>
<path id="Vector_37" d="M211.37 274.54L201.56 278.14C201.56 278.14 174.38 259.44 134.61 268.2C94.84 276.96 97.54 300.33 97.54 300.33C97.54 300.33 99.11 328.97 110.54 338.8C121.97 348.63 129.19 349.08 135.7 356.5C142.21 363.92 175.92 367.28 175.92 367.28C175.92 367.28 242.65 370.65 278.6 367.28C314.55 363.91 330.78 363.91 330.78 363.91C330.78 363.91 370.26 358.97 388.01 362.11C405.76 365.25 430.93 364.36 430.93 364.36C430.93 364.36 438.35 352.08 417.84 340.47C409.191 335.649 399.481 333.051 389.58 332.91C376.81 332.64 356.94 332.23 356.33 332.23C355.43 332.23 342.85 327.88 336.11 322.42C329.37 316.96 317.02 314.93 303.76 327.51C303.76 327.51 274.33 328.86 270.28 321.45C266.23 314.04 245.34 290.78 245.34 290.78L211.37 274.54Z" fill="#FFC1C7"/>
<path id="Vector_38" opacity="0.1" d="M260.2 318.68C260.2 318.68 259.98 322.75 269.08 322.08C277.5 321.45 244.14 291.41 244.14 291.41L210.14 275.16L200.33 278.77C200.33 278.77 233.24 274.87 260.2 318.68Z" fill="black"/>
<path id="Vector_39" d="M261.55 317.33C261.55 317.33 261.33 321.4 270.43 320.73C278.85 320.11 245.49 290.06 245.49 290.06L211.49 273.81L201.67 277.42C201.67 277.42 234.59 273.52 261.55 317.33Z" fill="#565988"/>
<path id="Vector_40" opacity="0.1" d="M164.94 289.55C164.94 289.55 174.6 284.61 188.76 290.79C193.816 292.967 199.023 294.775 204.34 296.2C212.866 298.502 221.051 301.921 228.68 306.37C238.54 312.1 251.92 318.98 259.36 318.98" stroke="black" stroke-miterlimit="10"/>
<path id="Vector_41" opacity="0.1" d="M508.06 148.9C507.379 148.947 506.695 148.841 506.06 148.59C505.321 148.103 504.685 147.474 504.19 146.74C501.57 143.74 497.14 143.17 493.19 142.84C492.87 141.1 494.88 139.84 495.48 138.2C496.75 134.7 491.48 131.07 493.14 127.72C494 125.95 496.29 125.5 498.26 125.45C500.23 125.4 502.42 125.45 503.84 124.08C505.49 122.5 505.26 119.87 505.69 117.63C506.34 114.2 508.74 111.35 511.35 109.03C513.96 106.71 516.89 104.69 519.14 102.03C522.58 97.94 524.2 92.57 524.64 87.24C524.92 83.78 524.64 80.11 522.81 77.19C520.81 74.11 517.38 72.37 514.24 70.46C511.319 68.8444 508.776 66.6252 506.78 63.95C505.46 62.01 504.12 58.95 504.68 56.5C505.24 54.05 507.82 53.9 510.23 53.58C510.94 53.48 511.64 53.42 512.36 53.38C510.747 53.3066 509.131 53.3735 507.53 53.58C505.12 53.9 502.53 53.93 501.98 56.5C501.43 59.07 502.76 62.01 504.09 63.95C506.086 66.6252 508.629 68.8444 511.55 70.46C514.6 72.35 518.06 74.14 520.06 77.14C521.93 80.06 522.17 83.73 521.89 87.19C521.45 92.52 519.89 97.89 516.39 101.98C514.14 104.66 511.22 106.67 508.61 108.98C506 111.29 503.61 114.15 502.94 117.58C502.51 119.82 502.74 122.45 501.1 124.03C499.68 125.39 497.48 125.35 495.51 125.4C493.54 125.45 491.25 125.9 490.39 127.67C488.77 131.02 494 134.67 492.74 138.15C492.13 139.81 490.13 141.05 490.44 142.79C494.44 143.12 498.86 143.66 501.44 146.69C501.93 147.428 502.566 148.058 503.31 148.54C503.945 148.793 504.628 148.899 505.31 148.85C506.76 148.85 508.22 148.85 509.68 148.85L508.06 148.9Z" fill="black"/>
<path id="Vector_42" d="M559.55 121.53C559.95 120.25 560.4 118.82 560.84 117.3C562.133 113.278 563.112 109.163 563.77 104.99C562.549 104.307 561.262 103.748 559.93 103.32C560.04 103.13 560.16 102.94 560.26 102.76L559.36 103.13C559.36 103.13 559.36 103.55 559.36 104.25C559.29 106.15 559.15 110.17 559.06 113.7C559.06 113.76 559.06 113.81 559.06 113.86C558.99 116.65 558.95 119.12 559.06 120L559.55 121.53Z" fill="#565988"/>
</g>
</svg>
