<svg width="833" height="412" viewBox="0 0 833 412" fill="none" xmlns="http://www.w3.org/2000/svg">
<g id="Group 1">
<path id="Vector" d="M416.58 411.28C646.369 411.28 832.65 393.595 832.65 371.78C832.65 349.965 646.369 332.28 416.58 332.28C186.791 332.28 0.51001 349.965 0.51001 371.78C0.51001 393.595 186.791 411.28 416.58 411.28Z" fill="#6B705C"/>
<path id="Vector_2" d="M731.22 298.14C737.46 295.49 742.09 293.28 743.34 292.14C748.35 287.59 792.22 247.87 780.81 285.77C769.4 323.67 743.81 338.3 743.81 338.3C743.81 338.3 715.94 363.88 710 377.13C704.06 390.38 686.26 386.73 678.94 377.13C671.62 367.53 648.79 371.19 648.79 371.19L614.06 373.93C614.06 373.93 551.11 382.26 529.99 367.65C508.87 353.04 494.8 352.92 494.8 352.92C494.8 352.92 478.36 360.23 459.64 361.14C450.763 361.747 441.943 363.003 433.25 364.9C433.04 365.822 432.704 366.71 432.25 367.54H431.88C431.677 368.496 431.341 369.418 430.88 370.28C430.88 370.28 405.29 371.16 387.25 367.99C369.21 364.82 329.06 369.82 329.06 369.82C329.06 369.82 312.53 369.83 275.98 373.25C239.43 376.67 171.59 373.25 171.59 373.25C171.59 373.25 137.28 369.8 130.7 362.25C124.12 354.7 116.77 354.24 105.12 344.25C93.47 334.26 91.87 305.14 91.87 305.14C91.87 305.14 89.17 281.47 129.6 272.58C170.03 263.69 197.67 282.69 197.67 282.69C197.68 282.67 197.87 282.39 198.15 281.92H197.78L198.24 281.75C199.36 279.87 201.73 275.38 201.61 271.18C201.4 265.65 207.61 251.65 207.61 251.65L207.74 251.59C207.57 251.053 207.57 250.477 207.74 249.94C209.97 242.91 217.33 229.72 217.33 229.72C217.33 229.72 222.64 226.64 222.47 223.72C222.3 220.8 232.24 212.24 232.24 212.24C232.24 212.24 238.4 207.13 237.55 202.82C236.7 198.51 243.55 191.51 243.55 191.51L256.55 165.98C256.55 165.98 267.52 142.2 275.06 141.14C282.6 140.08 296.48 118.11 296.48 118.11C296.48 118.11 321.15 98.22 321.32 94.11C321.49 90 333.66 82.63 333.66 82.63C333.66 82.63 333.71 83.09 333.87 83.85L335.29 82.72C343.94 75.85 356.76 66.89 366.44 65.5C366.44 65.5 379.57 57.2 388.37 48.6C391.63 45.44 425.81 29.85 455.2 18.6C479.69 9.21848 505.288 3.03743 531.36 0.210022H531.53H531.85L630.97 21.14C641.852 23.4413 652.227 27.6968 661.59 33.7C664.39 35.49 667.44 37.49 670.64 39.64C668.93 38.52 667.2 37.4 665.7 36.44C664.2 35.48 662.67 34.58 661.12 33.71C688.05 50.97 738.95 87.43 710.42 100.2C672.5 117.19 649.65 54.6 649.65 54.6C649.65 54.6 637.76 43.6 603.06 46.37C568.36 49.14 512.24 40.01 512.24 40.01C512.24 40.01 491.24 59.64 464.24 61.01C464.24 61.01 444.6 67.86 441.86 73.34C439.661 77.7176 435.729 86.7579 434.222 90.2204L434.14 90.41L435.01 90.24L433.84 91.13C433.7 91.45 433.64 91.61 433.64 91.61L440.06 93.45C443.729 94.3729 447.497 94.8398 451.28 94.84C452.21 94.8234 453.139 94.7499 454.06 94.62C455.403 84.2973 460.45 74.8139 468.263 67.9342C476.075 61.0545 486.12 57.2469 496.53 57.22C498.174 57.2191 499.816 57.3093 501.45 57.49C501.9 57.54 502.35 57.61 502.79 57.68C502.86 57.56 502.86 57.36 502.86 57.32V57.21C503.26 55.48 504.53 54.89 506.05 54.59C506.83 54.44 507.67 54.35 508.5 54.24C509.19 54.16 509.84 54.05 510.5 54.05H511.01C511.82 54.05 512.62 54 513.44 54.05C517.642 54.1975 521.751 55.3241 525.44 57.34C526.81 58.08 528.12 58.94 529.53 59.58C532.86 61.08 536.61 61.27 540.08 62.37C547.03 64.55 552.44 70.25 555.86 76.66C559.28 83.07 561 90.26 562.67 97.33C563.163 98.9313 563.293 100.622 563.05 102.28C562.885 102.981 562.619 103.655 562.26 104.28C562.15 104.47 562.02 104.66 561.91 104.86C563.268 105.288 564.578 105.854 565.82 106.55C569.592 108.702 572.802 111.713 575.19 115.34C579.36 121.62 581.14 129.22 581.66 136.75C581.982 139.953 581.82 143.186 581.18 146.34V146.48L581.12 146.76C581.04 147.06 580.97 147.36 580.87 147.66L580.69 148.21C580.48 148.82 580.26 149.43 580.02 150.03C579.61 151.09 579.16 152.09 578.73 153.09C578.077 154.557 577.581 156.089 577.25 157.66C576.29 162.88 578.37 168.14 580.06 173.14C581.686 177.909 582.982 182.784 583.94 187.73C584.92 192.89 585.47 198.38 584.28 203.38C584.282 203.353 584.282 203.327 584.28 203.3C584.24 203.5 584.18 203.7 584.13 203.9L584.07 204.14L584.01 204.37C583.929 204.703 583.84 204.988 583.75 205.275L583.72 205.37C583.68 205.49 583.69 205.48 583.61 205.74C583.53 206 583.42 206.26 583.32 206.53C583.089 207.106 582.828 207.67 582.54 208.22L582.41 208.48C582.3 208.7 582.17 208.93 582.06 209.14C582.024 209.2 581.984 209.256 581.94 209.31L581.69 209.75C581.52 210.04 581.38 210.25 581.16 210.62C580.94 210.99 580.71 211.36 580.47 211.72L580.38 211.85C579.67 212.94 578.92 214.02 578.19 215.09C577.92 215.48 577.66 215.88 577.4 216.27C577.01 216.87 576.64 217.48 576.28 218.09C576.14 218.32 576 218.56 575.88 218.79C575.62 219.21 575.37 219.73 575.14 220.21C574.61 221.322 574.194 222.484 573.9 223.68C572.35 230.13 575.1 236.75 577.35 243C581.89 255.67 584.38 269.84 580.09 282.49C580 282.789 579.891 283.088 579.781 283.387L579.78 283.39L579.42 284.31C579.38 284.41 579.31 284.51 579.31 284.6C579.08 285.18 578.81 285.76 578.52 286.33V286.4C583.547 288.568 588.407 291.105 593.06 293.99C603.841 295.535 614.438 298.165 624.69 301.84C630.54 303.92 637.71 305.84 644.2 305.84C658.36 305.84 731.45 286.65 731.45 296.25C731.315 297.187 730.824 298.036 730.08 298.62L731.22 298.14Z" fill="url(#paint0_linear)"/>
<path id="Vector_3" d="M705.96 101.72C668.66 118.43 646.19 56.87 646.19 56.87C646.19 56.87 634.52 46.08 600.36 48.78C566.2 51.48 510.94 42.48 510.94 42.48C510.94 42.48 490.27 61.82 463.76 63.14C463.76 63.14 444.44 69.88 441.76 75.28C439.57 79.66 435.59 88.81 434.17 92.06C434.088 92.3024 433.991 92.5395 433.88 92.77C433.74 93.08 433.68 93.25 433.68 93.25L432.57 93.77L410.31 104.46L379.76 113.01L360.43 115.25L327.63 92.52C327.63 92.52 331.42 88.98 336.99 84.52C345.5 77.77 358.11 68.95 367.63 67.59C367.63 67.59 380.55 59.42 389.2 50.97C392.41 47.82 426.03 32.49 454.93 21.42C479.018 12.1946 504.196 6.11449 529.84 3.33002L627.33 23.92C638.041 26.1779 648.256 30.3552 657.48 36.25C683.93 53.28 734.06 89.14 705.96 101.72Z" fill="#FFC1C7"/>
<g id="Group" opacity="0.1">
<path id="Vector_4" opacity="0.1" d="M332.13 95.25C332.13 95.25 335.92 91.7 341.49 87.25C350 80.5 362.61 71.68 372.13 70.32C372.13 70.32 385.05 62.15 393.7 53.7C396.91 50.54 430.53 35.22 459.43 24.15C483.521 14.9473 508.699 8.89389 534.34 6.14001L631.83 26.72C642.539 28.9796 652.751 33.1605 661.97 39.06C663.523 40.0534 665.143 41.1034 666.83 42.21C663.68 40.09 660.68 38.12 657.93 36.36C648.709 30.4653 638.498 26.288 627.79 24.03L530.3 3.44C504.656 6.22326 479.478 12.3035 455.39 21.53C426.48 32.6 392.86 47.93 389.66 51.08C381 59.53 368.09 67.7 368.09 67.7C358.57 69.06 345.95 77.88 337.45 84.63C331.88 89.06 328.09 92.63 328.09 92.63L360.89 115.36H361.02L332.13 95.25Z" fill="black"/>
<path id="Vector_5" opacity="0.1" d="M650.72 59.56C649.492 58.5608 648.149 57.7115 646.72 57.03C647.62 59.41 659 88.89 678.41 100.21C660.71 86.92 650.72 59.56 650.72 59.56Z" fill="black"/>
</g>
<path id="Vector_6" d="M581.65 204.01C581.526 204.527 581.376 205.038 581.2 205.54C581.12 205.8 581.01 206.06 580.92 206.31C580.666 206.935 580.379 207.546 580.06 208.14C579.93 208.41 579.78 208.68 579.65 208.94C579.618 209 579.581 209.056 579.54 209.11C579.4 209.37 579.26 209.61 579.11 209.85C578.11 211.55 576.95 213.17 575.84 214.85C575.47 215.39 575.1 215.94 574.75 216.5C574.687 216.614 574.617 216.725 574.54 216.83C574.35 217.14 574.15 217.47 573.97 217.83C573.79 218.19 573.65 218.37 573.51 218.64C573.37 218.91 573.35 218.92 573.28 219.06L572.85 219.89C572.348 220.932 571.95 222.021 571.66 223.14C570.12 229.49 572.84 236 575.05 242.14C579.51 254.6 581.97 268.54 577.75 280.98C577.65 281.27 577.55 281.57 577.44 281.87C577.33 282.17 577.14 282.66 576.98 283.05C576.74 283.65 576.47 284.24 576.17 284.83C573.89 289.27 569.98 293.26 565.17 292.83C558.56 292.25 555.35 284.15 549.33 281.39C544.1 278.99 537.49 280.95 532.56 277.99C532.971 276.642 533.531 275.344 534.23 274.12C535.12 272.48 536.23 270.91 537.23 269.35C538.908 267.046 540.254 264.518 541.23 261.84C541.422 261.243 541.579 260.635 541.7 260.02C541.706 259.974 541.706 259.926 541.7 259.88C541.75 259.57 541.81 259.28 541.85 258.97C541.89 258.66 541.93 258.38 541.96 258.06C541.965 258.007 541.965 257.953 541.96 257.9C541.96 257.55 541.96 257.2 542.03 256.84C542.04 253.461 541.705 250.091 541.03 246.78C539.783 239.26 538.53 231.74 537.27 224.22C536.35 218.72 535.45 212.96 537.15 207.65C537.28 207.27 537.42 206.89 537.56 206.52C537.7 206.15 537.87 205.77 538.04 205.41C539.022 203.364 540.18 201.406 541.5 199.56C544.673 194.893 548.077 190.377 551.71 186.01C554.17 183.01 556.81 180.01 557.71 176.27C557.807 175.909 557.881 175.541 557.93 175.17C558.51 171.56 557.49 167.96 556.29 164.35C556.137 163.93 555.997 163.51 555.87 163.09C555.45 161.85 555.03 160.6 554.67 159.33C554.55 158.92 554.44 158.5 554.33 158.08C554.117 157.239 553.947 156.388 553.82 155.53C553.687 154.683 553.613 153.827 553.6 152.97C553.6 152.57 553.6 152.16 553.6 151.76C553.6 151.36 553.6 151.16 553.68 150.85C553.76 150.54 553.77 150.21 553.82 149.85C553.87 149.49 553.9 149.37 553.95 149.13C554 148.89 554.1 148.4 554.2 148.05C554.257 147.762 554.334 147.478 554.43 147.2C554.48 146.97 554.55 146.74 554.61 146.52L554.87 145.72L555.28 144.56C555.41 144.18 555.56 143.79 555.71 143.41C556.46 141.41 557.32 139.41 558.07 137.49C558.492 136.38 558.855 135.248 559.16 134.1C559.16 133.89 559.27 133.66 559.32 133.44C559.382 133.219 559.432 132.996 559.47 132.77C559.54 132.493 559.593 132.213 559.63 131.93C559.7 131.56 559.77 131.17 559.81 130.79C559.85 130.41 559.89 130.02 559.92 129.63C559.95 129.24 559.92 128.86 559.92 128.48C559.937 127.125 559.745 125.776 559.35 124.48C559.201 123.951 559.007 123.436 558.77 122.94C558.596 122.598 558.406 122.264 558.2 121.94C556.92 119.86 554.93 118.27 553.77 116.1C553.086 114.768 552.742 113.287 552.77 111.79C552.766 111.382 552.793 110.974 552.85 110.57C552.91 110.156 553.004 109.748 553.13 109.35C553.171 109.19 553.225 109.032 553.29 108.88C553.363 108.713 553.433 108.553 553.5 108.4C553.598 108.2 553.708 108.006 553.83 107.82C553.93 107.69 554.02 107.55 554.12 107.43C555.18 106.09 556.88 105.43 559.21 106.11L559.78 106.3C561.112 106.728 562.399 107.287 563.62 107.97C567.33 110.085 570.489 113.045 572.84 116.61C576.94 122.79 578.69 130.27 579.2 137.67C579.51 140.823 579.351 144.004 578.73 147.11C578.73 147.24 578.66 147.39 578.64 147.52C578.56 147.82 578.49 148.12 578.39 148.41C577.783 150.225 577.082 152.008 576.29 153.75C575.648 155.195 575.159 156.703 574.83 158.25C573.89 163.39 575.94 168.52 577.6 173.47C579.173 178.169 580.422 182.97 581.34 187.84C582.5 193.21 583.06 198.84 581.65 204.01Z" fill="#965D7B"/>
<g id="Group_2" opacity="0.1">
<path id="Vector_7" opacity="0.1" d="M576.43 153.77C577.227 152.022 577.931 150.233 578.54 148.41C578.67 147.98 578.79 147.55 578.89 147.11C577.869 149.251 577.046 151.48 576.43 153.77Z" fill="black"/>
<path id="Vector_8" opacity="0.1" d="M558.41 121.94C560.63 125.54 560.41 129.94 559.31 134.17C559.39 133.95 559.48 133.74 559.56 133.52C561.47 128.52 562.56 122.52 559.76 117.9C558.47 115.82 556.47 114.22 555.32 112.06C554.587 110.631 554.243 109.034 554.32 107.43C552.63 109.53 552.51 113.29 554.02 116.11C555.12 118.27 557.12 119.86 558.41 121.94Z" fill="black"/>
<path id="Vector_9" opacity="0.1" d="M573.06 219.14C573.01 219.36 572.97 219.58 572.93 219.81C575.13 215.14 579.01 211.18 580.93 206.34C581.334 205.325 581.652 204.278 581.88 203.21C579.31 208.72 574.44 213.19 573.06 219.14Z" fill="black"/>
<path id="Vector_10" opacity="0.1" d="M578.33 279.05C576.27 284.13 571.98 289.3 566.51 288.82C559.9 288.25 556.7 280.15 550.67 277.38C545.55 275.03 539.11 276.85 534.22 274.16C533.525 275.386 532.965 276.683 532.55 278.03C537.48 281.03 544.09 279.03 549.32 281.42C555.32 284.19 558.55 292.3 565.16 292.87C570.63 293.34 574.92 288.17 576.98 283.09C577.532 281.719 578.003 280.316 578.39 278.89L578.33 279.05Z" fill="black"/>
<path id="Vector_11" opacity="0.1" d="M541.11 246.82C541.84 251.2 542.56 255.75 541.7 260.06C542.036 259.339 542.326 258.597 542.57 257.84C544.11 253.01 543.29 247.78 542.46 242.78C541.213 235.26 539.96 227.737 538.7 220.21C537.89 215.32 537.09 210.21 538.12 205.44C537.778 206.171 537.481 206.923 537.23 207.69C535.53 213 536.44 218.75 537.35 224.25C538.61 231.783 539.863 239.307 541.11 246.82Z" fill="black"/>
<path id="Vector_12" opacity="0.1" d="M559.17 172.27C561.1 164.53 555.17 156.94 555.06 148.97C555.077 147.116 555.342 145.273 555.85 143.49C554.543 146.503 553.82 149.737 553.72 153.02C553.79 160.62 559.2 167.87 558.03 175.25C558.52 174.302 558.902 173.303 559.17 172.27Z" fill="black"/>
</g>
<path id="Vector_13" d="M775.16 284.24C763.93 321.53 738.76 335.91 738.76 335.91C738.76 335.91 711.35 361.08 705.5 374.14C699.65 387.2 682.14 383.58 674.96 374.14C667.78 364.7 645.3 368.31 645.3 368.31L611.14 371C611.14 371 549.24 379.21 528.46 364.83C507.68 350.45 493.86 350.34 493.86 350.34C493.86 350.34 477.68 357.52 459.27 358.43C450.524 359.013 441.834 360.243 433.27 362.11C428.5 363.11 424.33 364.11 421.34 364.82C418.35 365.53 416.57 366.06 416.57 366.06L370.81 361.45L327.59 357.08L304.23 353.92L298.1 340.58L292.2 327.76L290.2 323.38L293 277.57H366.7C366.7 277.57 443.56 281.57 453.43 281.57H455.67C455.67 281.57 467.96 276.65 488.02 288.75C490.578 290.184 493.254 291.396 496.02 292.37C527.9 304.28 617.47 319.76 617.47 319.76L675.47 316.16C675.47 316.16 708.08 304.28 726.47 296.45C732.6 293.83 737.16 291.66 738.38 290.55C743.25 286.04 786.39 246.94 775.16 284.24Z" fill="#FFC1C7"/>
<path id="Vector_14" opacity="0.1" d="M318.33 322.6L321.88 335.24L309.74 341.82L298.11 340.54L292.21 327.72L290.21 323.34L293.01 277.53H366.66C351.29 278.91 318.33 322.6 318.33 322.6Z" fill="black"/>
<path id="Vector_15" d="M316.98 322.6L320.53 335.24L308.4 341.82L277.73 338.45L261.21 325.14C234.21 281.33 201.56 281.14 201.56 281.14C201.56 281.14 205.61 275.23 205.44 269.84C205.27 264.45 211.38 250.63 211.38 250.63L211.96 250.35C214.02 249.35 221.01 245.89 221.45 245.74C221.45 245.74 360.12 268.15 362.82 269C363.517 269.289 364.088 269.818 364.43 270.49C366 272.95 366.7 277.49 366.7 277.49C352.06 276.14 316.98 322.6 316.98 322.6Z" fill="#565988"/>
<path id="Vector_16" d="M480.84 135.5C476.766 135.415 472.691 135.672 468.66 136.27C461.95 137.36 455.52 139.91 458.37 145.84C463.76 157.07 429.61 176.84 429.61 176.84L381.97 207.4L352.31 162.46L367.6 126.06L410.28 104.49L433.66 93.27C433.66 93.27 442.92 96.64 451.06 96.45C454.82 96.37 458.35 95.53 460.62 93.27C467.8 86.08 480.84 135.5 480.84 135.5Z" fill="#FFC1C7"/>
<path id="Vector_17" opacity="0.1" d="M480.84 135.5C476.766 135.415 472.691 135.672 468.66 136.27C463.115 132.376 458.592 127.202 455.472 121.188C452.353 115.173 450.729 108.495 450.74 101.72C450.735 99.9584 450.842 98.1981 451.06 96.45C454.82 96.37 458.35 95.53 460.62 93.27C467.8 86.08 480.84 135.5 480.84 135.5Z" fill="black"/>
<path id="Vector_18" d="M537.9 101.72C537.901 107.267 536.81 112.76 534.688 117.885C532.567 123.011 529.457 127.668 525.535 131.591C521.614 135.514 516.958 138.627 511.834 140.751C506.71 142.875 501.217 143.969 495.67 143.97C493.713 143.971 491.758 143.834 489.82 143.56C479.217 142.09 469.568 136.65 462.822 128.339C456.077 120.028 452.738 109.466 453.481 98.7881C454.224 88.1099 458.993 78.112 466.825 70.8153C474.656 63.5185 484.966 59.4671 495.67 59.48C497.287 59.4844 498.903 59.5745 500.51 59.75C510.804 60.9443 520.301 65.8795 527.194 73.6175C534.088 81.3555 537.898 91.3567 537.9 101.72Z" fill="#FFC1C7"/>
<path id="Vector_19" opacity="0.1" d="M726.63 297.27C726.63 302.63 698.14 313.52 673.57 321.92C656.336 327.666 638.217 330.297 620.06 329.69C618.592 329.614 617.121 329.746 615.69 330.08C608.95 331.87 521.33 311.2 521.33 311.2C521.33 311.2 503.44 302.9 496.04 292.35C527.92 304.26 617.49 319.74 617.49 319.74L675.49 316.14C675.49 316.14 708.1 304.26 726.49 296.43C726.613 296.692 726.661 296.982 726.63 297.27Z" fill="black"/>
<path id="Vector_20" d="M462.41 149.98C462.41 149.98 468.7 166.51 476.79 170.55C484.88 174.59 501.05 190.77 499.71 211.89C499.71 211.89 497.01 217.74 505.55 229.89C514.09 242.04 534.76 268.53 534.76 268.53C534.76 268.53 576.99 283.36 590.47 292.35H590.52C601.119 293.872 611.536 296.469 621.61 300.1C627.37 302.1 634.42 304.03 640.8 304.03C654.73 304.03 726.63 285.16 726.63 294.59C726.63 299.96 698.14 310.85 673.56 319.25C656.327 324.982 638.211 327.603 620.06 326.99C618.592 326.919 617.122 327.051 615.69 327.38C608.95 329.17 521.32 308.5 521.32 308.5C521.32 308.5 502.85 299.97 495.66 289.14C488.47 278.31 470.06 264.47 470.06 264.47C470.06 264.47 449.84 230.32 448.06 222.23C448.06 222.23 437.73 216.39 410.76 225.37C383.79 234.35 404.89 205.14 404.89 205.14L435 170.14L462.41 149.98Z" fill="#FFC1C7"/>
<path id="Vector_21" opacity="0.1" d="M470.95 162.47L461.56 139.63C452.812 145.184 444.665 151.632 437.25 158.87C426.01 170.1 418.37 176.87 412.98 178.19C407.59 179.51 389.17 188.89 381.53 169.61C373.89 150.33 377.03 137.3 384.22 131.01C391.41 124.72 440.06 95.14 440.06 95.14L433.67 94.65C433.67 94.65 389.19 110.22 375.26 103.11C375.26 103.11 350.54 107.24 345.15 98.25C339.76 89.26 334.67 87.84 334.67 87.84L302.01 131.95L313.7 229.46H343.8L376.15 216.88L419.29 213.28C419.29 213.28 435.47 198 437.72 190.81C439.97 183.62 457.06 160.22 470.95 162.47Z" fill="black"/>
<path id="Vector_22" d="M470.95 161.14L461.56 138.3C452.812 143.854 444.665 150.302 437.25 157.54C426.01 168.78 418.37 175.54 412.98 176.86C407.59 178.18 389.17 187.56 381.53 168.28C373.89 149 377.03 135.97 384.22 129.68C391.41 123.39 440.06 95.14 440.06 95.14L433.67 93.31C433.67 93.31 389.19 108.87 375.26 101.76C375.26 101.76 350.54 105.89 345.15 96.9C339.76 87.91 334.67 86.49 334.67 86.49L302.01 130.6L313.7 228.11H343.8L376.15 215.53L419.29 211.93C419.29 211.93 435.47 196.66 437.72 189.47C439.97 182.28 457.06 158.87 470.95 161.14Z" fill="#565988"/>
<path id="Vector_23" opacity="0.1" d="M364.43 270.51C363.91 272.99 363.49 274.58 363.49 274.58C363.49 274.58 361.64 273.9 338.9 278.29C316.16 282.68 293.57 278.29 293.57 278.29C280.363 276.759 267.291 274.221 254.47 270.7C234.93 265.14 209.31 258.56 211.47 251.7C211.61 251.3 211.75 250.85 211.92 250.41C213.98 249.41 220.97 245.95 221.41 245.8C221.41 245.8 360.08 268.21 362.78 269.06C363.485 269.331 364.07 269.845 364.43 270.51Z" fill="black"/>
<path id="Vector_24" opacity="0.1" d="M461.56 139.63L469.36 157.26C469.36 157.26 457.36 150.89 442.02 177.01C426.68 203.13 424.66 206.84 424.66 206.84C424.66 206.84 413.88 214.2 416.58 223.58C416.58 223.58 384.64 234.58 363.58 227.31C363.58 227.31 358.86 241.55 359.37 251.16C359.685 256.291 359.711 261.436 359.45 266.57C359.45 266.57 365.45 262.02 342.69 266.41C319.93 270.8 297.36 269.52 297.36 269.52C284.942 267.494 272.649 264.767 260.54 261.35C240.99 255.79 210.66 257.22 212.85 250.35C215.04 243.48 222.29 230.47 222.29 230.47C222.29 230.47 227.51 227.47 227.29 224.57C227.07 221.67 236.9 213.28 236.9 213.28C236.9 213.28 242.96 208.23 242.12 204.01C241.28 199.79 248.02 192.89 248.02 192.89L260.83 167.79C260.83 167.79 271.61 144.36 279.03 143.35C286.45 142.34 300.09 120.77 300.09 120.77C300.09 120.77 324.35 101.23 324.52 97.18C324.69 93.13 336.65 85.89 336.65 85.89C336.65 85.89 338.58 102.43 354.65 103.11C370.72 103.79 391.95 103.11 391.95 103.11L433.64 93.31C433.64 93.31 415.38 109.82 411.16 111C406.94 112.18 394.26 121.28 387.8 123C381.34 124.72 368.21 133.54 368.72 146.14C369.23 158.74 373.61 165.14 373.61 165.14C373.61 165.14 386.75 190.14 399.89 187.14C399.89 187.14 414.57 187.93 420.45 179.22C426.33 170.51 461.56 139.63 461.56 139.63Z" fill="black"/>
<path id="Vector_25" opacity="0.1" d="M435 91.92L433.86 92.79L432.55 93.79L410.29 104.48L379.74 113.03L360.41 115.27L327.61 92.54C327.61 92.54 331.4 89 336.97 84.54C337.87 88.54 341.54 99.78 354.68 100.33C370.73 101.02 391.98 100.33 391.98 100.33L434.16 92.04L435 91.92Z" fill="black"/>
<path id="Vector_26" d="M461.56 138.28L469.36 157.28C469.36 157.28 456.01 149.57 440.67 175.69C425.33 201.81 423.32 205.51 423.32 205.51C423.32 205.51 413.88 214.22 416.58 223.6C416.58 223.6 387.42 238.37 366.36 231.12C366.36 231.12 365.86 239.89 366.36 249.49C366.86 259.09 363.5 271.9 363.5 271.9C363.5 271.9 361.64 271.23 338.89 275.61C316.14 279.99 293.57 275.61 293.57 275.61C280.362 274.085 267.291 271.551 254.47 268.03C234.93 262.47 209.31 255.89 211.47 249.03C213.63 242.17 220.91 229.14 220.91 229.14C220.91 229.14 226.13 226.14 225.97 223.24C225.81 220.34 235.57 211.95 235.57 211.95C235.57 211.95 241.64 206.95 240.79 202.69C239.94 198.43 246.69 191.56 246.69 191.56L259.5 166.46C259.5 166.46 270.28 143.03 277.7 142.02C285.12 141.01 298.76 119.44 298.76 119.44C298.76 119.44 323.06 99.84 323.22 95.79C323.38 91.74 335.36 84.5 335.36 84.5C335.36 84.5 337.28 101.04 353.36 101.72C369.44 102.4 390.67 101.72 390.67 101.72L433.67 93.27C433.67 93.27 414.07 108.43 409.86 109.61C405.65 110.79 392.95 119.89 386.49 121.61C380.03 123.33 366.89 132.23 367.39 144.87C367.89 157.51 372.28 163.87 372.28 163.87C372.28 163.87 385.42 188.81 398.57 185.78C398.57 185.78 413.24 186.56 419.12 177.86C425 169.16 461.56 138.28 461.56 138.28Z" fill="#E8F4FF"/>
<path id="Vector_27" opacity="0.1" d="M330.81 199.42C330.81 199.42 347.32 230.09 354.9 233.42C362.48 236.75 360.97 231.06 360.97 231.06C360.97 231.06 333.17 206.14 330.81 199.42Z" fill="black"/>
<path id="Vector_28" opacity="0.1" d="M298.96 222.68C298.96 222.68 315.14 248.46 327.1 248.46L298.96 222.68Z" fill="black"/>
<path id="Vector_29" opacity="0.1" d="M263.4 190.83C263.4 190.83 282.28 250.48 316.99 255.2C316.99 255.2 271.66 221.84 263.4 190.83Z" fill="black"/>
<path id="Vector_30" opacity="0.1" d="M266.77 242.39C266.77 242.39 297.95 267.16 316.99 263.46C316.99 263.46 284.47 257.9 266.77 242.39Z" fill="black"/>
<path id="Vector_31" opacity="0.1" d="M243.63 284.89C243.63 284.89 274.8 309.66 293.85 305.95C293.85 305.95 261.32 300.39 243.63 284.89Z" fill="black"/>
<path id="Vector_32" opacity="0.1" d="M251.78 298.95C251.78 298.95 282.95 323.72 301.99 320.02C301.99 320.02 269.47 314.46 251.78 298.95Z" fill="black"/>
<path id="Vector_33" opacity="0.1" d="M256.49 276.14C256.49 276.14 287.66 300.88 306.7 297.14C306.7 297.14 274.18 291.61 256.49 276.14Z" fill="black"/>
<path id="Vector_34" opacity="0.1" d="M400.06 129.49L380.52 154.6L383.21 159.65L400.06 129.49Z" fill="black"/>
<path id="Vector_35" opacity="0.1" d="M537.9 101.72C537.901 107.267 536.81 112.76 534.688 117.885C532.567 123.011 529.457 127.668 525.535 131.591C521.614 135.514 516.958 138.627 511.834 140.751C506.71 142.875 501.217 143.969 495.67 143.97C493.713 143.971 491.758 143.834 489.82 143.56C490.443 142.849 490.965 142.055 491.37 141.2C492.62 137.71 487.37 134.07 489.02 130.73C489.87 128.95 492.16 128.5 494.13 128.45C496.1 128.4 498.29 128.45 499.72 127.09C501.37 125.5 501.14 122.88 501.56 120.63C502.22 117.21 504.62 114.36 507.23 112.03C509.84 109.7 512.76 107.69 515.01 105.03C518.46 100.93 520.08 95.57 520.51 90.23C520.79 86.78 520.51 83.11 518.69 80.23C516.69 77.14 513.26 75.4 510.12 73.5C507.199 71.8844 504.656 69.6652 502.66 66.99C501.38 65.11 500.1 62.18 500.51 59.8C510.796 60.9933 520.285 65.9213 527.178 73.6488C534.07 81.3763 537.886 91.3654 537.9 101.72Z" fill="black"/>
<path id="Vector_36" d="M561.06 103.79C560.895 104.491 560.628 105.165 560.27 105.79C560.17 105.97 560.05 106.16 559.94 106.35L559.33 107.28C558.369 108.482 557.732 109.911 557.48 111.43C557.36 113.28 558.37 114.97 559.03 116.73L559.14 117.04C559.23 117.289 559.307 117.543 559.37 117.8C559.778 119.539 559.641 121.361 558.98 123.02C558.257 124.871 557.188 126.568 555.83 128.02C553.28 130.77 550.07 132.85 547.5 135.57C545.58 137.57 544.03 139.94 542.13 141.96C537.63 146.72 531.33 149.45 524.92 150.75C519.902 151.654 514.808 152.066 509.71 151.98H505.36C504.679 152.021 503.997 151.915 503.36 151.67C502.625 151.177 501.991 150.549 501.49 149.82C498.87 146.82 494.49 146.25 490.49 145.91C490.448 145.529 490.485 145.143 490.599 144.776C490.712 144.41 490.9 144.071 491.15 143.78C491.797 143.013 492.348 142.17 492.79 141.27C494.05 137.77 488.79 134.14 490.45 130.78C490.603 130.464 490.814 130.18 491.07 129.94C491.238 129.772 491.422 129.621 491.62 129.49C492.822 128.815 494.181 128.47 495.56 128.49C496.3 128.49 497.07 128.49 497.82 128.4C499.01 128.353 500.151 127.91 501.06 127.14C502.71 125.57 502.48 122.94 502.9 120.7C503.56 117.26 505.96 114.42 508.57 112.1C511.18 109.78 514.1 107.76 516.35 105.1C519.8 101.01 521.42 95.63 521.85 90.31C522.13 86.86 521.85 83.18 520.03 80.31C518.29 77.61 515.43 75.94 512.64 74.31L511.46 73.61C509.293 72.3604 507.305 70.8231 505.55 69.04C505.005 68.3759 504.507 67.6741 504.06 66.94C502.81 65.1 501.57 62.27 501.88 59.94C501.892 59.7845 501.919 59.6305 501.96 59.48C502.55 56.91 505.09 56.88 507.5 56.56C508.15 56.48 508.79 56.41 509.44 56.37C510.399 56.315 511.361 56.315 512.32 56.37C516.429 56.5239 520.447 57.626 524.06 59.59C525.4 60.32 526.68 61.17 528.06 61.8C531.34 63.27 535.06 63.46 538.44 64.54C545.28 66.68 550.59 72.28 553.96 78.6C557.33 84.92 559.01 91.97 560.66 98.93C561.15 100.501 561.286 102.16 561.06 103.79Z" fill="#965D7B"/>
<path id="Vector_37" opacity="0.1" d="M433.28 362.07C433.071 362.98 432.734 363.855 432.28 364.67C432.28 364.67 427.82 364.83 421.28 364.78C412.35 364.71 399.59 364.25 389.28 362.43C383.132 361.544 376.917 361.209 370.71 361.43L327.49 357.06L304.13 353.9L292.13 327.74C299.07 328.12 305.05 327.85 305.05 327.85C318.32 315.27 330.67 317.29 337.41 322.75C344.15 328.21 356.74 332.56 357.63 332.56C358.23 332.56 378.1 332.98 390.88 333.24C400.78 333.387 410.489 335.985 419.14 340.8C434.06 349.14 434.28 357.86 433.28 362.07Z" fill="black"/>
<path id="Vector_38" d="M211.37 277.54L201.56 281.14C201.56 281.14 174.38 262.44 134.61 271.2C94.84 279.96 97.54 303.33 97.54 303.33C97.54 303.33 99.11 331.97 110.54 341.8C121.97 351.63 129.19 352.08 135.7 359.5C142.21 366.92 175.92 370.28 175.92 370.28C175.92 370.28 242.65 373.65 278.6 370.28C314.55 366.91 330.78 366.91 330.78 366.91C330.78 366.91 370.26 361.97 388.01 365.11C405.76 368.25 430.93 367.36 430.93 367.36C430.93 367.36 438.35 355.08 417.84 343.47C409.191 338.649 399.481 336.051 389.58 335.91C376.81 335.64 356.94 335.23 356.33 335.23C355.43 335.23 342.85 330.88 336.11 325.42C329.37 319.96 317.02 317.93 303.76 330.51C303.76 330.51 274.33 331.86 270.28 324.45C266.23 317.04 245.34 293.78 245.34 293.78L211.37 277.54Z" fill="#FFC1C7"/>
<path id="Vector_39" opacity="0.1" d="M260.2 321.68C260.2 321.68 259.98 325.75 269.08 325.08C277.5 324.45 244.14 294.41 244.14 294.41L210.14 278.16L200.33 281.77C200.33 281.77 233.24 277.87 260.2 321.68Z" fill="black"/>
<path id="Vector_40" d="M261.55 320.33C261.55 320.33 261.33 324.4 270.43 323.73C278.85 323.11 245.49 293.06 245.49 293.06L211.49 276.81L201.67 280.42C201.67 280.42 234.59 276.52 261.55 320.33Z" fill="#565988"/>
<path id="Vector_41" opacity="0.1" d="M164.94 292.55C164.94 292.55 174.6 287.61 188.76 293.79C193.816 295.967 199.023 297.775 204.34 299.2C212.866 301.502 221.051 304.921 228.68 309.37C238.54 315.1 251.92 321.98 259.36 321.98" stroke="black" stroke-miterlimit="10"/>
<path id="Vector_42" opacity="0.1" d="M508.06 151.9C507.379 151.947 506.695 151.841 506.06 151.59C505.321 151.103 504.685 150.474 504.19 149.74C501.57 146.74 497.14 146.17 493.19 145.84C492.87 144.1 494.88 142.84 495.48 141.2C496.75 137.7 491.48 134.07 493.14 130.72C494 128.95 496.29 128.5 498.26 128.45C500.23 128.4 502.42 128.45 503.84 127.08C505.49 125.5 505.26 122.87 505.69 120.63C506.34 117.2 508.74 114.35 511.35 112.03C513.96 109.71 516.89 107.69 519.14 105.03C522.58 100.94 524.2 95.57 524.64 90.24C524.92 86.78 524.64 83.11 522.81 80.19C520.81 77.11 517.38 75.37 514.24 73.46C511.319 71.8444 508.776 69.6252 506.78 66.95C505.46 65.01 504.12 61.95 504.68 59.5C505.24 57.05 507.82 56.9 510.23 56.58C510.94 56.48 511.64 56.42 512.36 56.38C510.747 56.3066 509.131 56.3735 507.53 56.58C505.12 56.9 502.53 56.93 501.98 59.5C501.43 62.07 502.76 65.01 504.09 66.95C506.086 69.6252 508.629 71.8444 511.55 73.46C514.6 75.35 518.06 77.14 520.06 80.14C521.93 83.06 522.17 86.73 521.89 90.19C521.45 95.52 519.89 100.89 516.39 104.98C514.14 107.66 511.22 109.67 508.61 111.98C506 114.29 503.61 117.15 502.94 120.58C502.51 122.82 502.74 125.45 501.1 127.03C499.68 128.39 497.48 128.35 495.51 128.4C493.54 128.45 491.25 128.9 490.39 130.67C488.77 134.02 494 137.67 492.74 141.15C492.13 142.81 490.13 144.05 490.44 145.79C494.44 146.12 498.86 146.66 501.44 149.69C501.93 150.428 502.566 151.058 503.31 151.54C503.945 151.793 504.628 151.899 505.31 151.85C506.76 151.85 508.22 151.85 509.68 151.85L508.06 151.9Z" fill="black"/>
<path id="Vector_43" d="M559.55 124.53C559.95 123.25 560.4 121.82 560.84 120.3C562.133 116.278 563.112 112.163 563.77 107.99C562.549 107.307 561.262 106.748 559.93 106.32C560.04 106.13 560.16 105.94 560.26 105.76L559.36 106.13C559.36 106.13 559.36 106.55 559.36 107.25C559.29 109.15 559.15 113.17 559.06 116.7C559.06 116.76 559.06 116.81 559.06 116.86C558.99 119.65 558.95 122.12 559.06 123L559.55 124.53Z" fill="#565988"/>
</g>
<defs>
<linearGradient id="paint0_linear" x1="437.26" y1="385.75" x2="437.26" y2="0.230014" gradientUnits="userSpaceOnUse">
<stop stop-color="#808080" stop-opacity="0.25"/>
<stop offset="0.54" stop-color="#808080" stop-opacity="0.12"/>
<stop offset="1" stop-color="#808080" stop-opacity="0.1"/>
</linearGradient>
</defs>
</svg>
