<svg width="773" height="447" viewBox="0 0 773 447" fill="none" xmlns="http://www.w3.org/2000/svg">
<g id="Group 1">
<path id="Vector" d="M505.36 269.76C505.36 269.76 533.9 282.65 547.71 282.65C547.71 282.65 562.44 286.33 570.71 290.02C578.98 293.71 611.22 295.54 611.22 295.54C611.22 295.54 648.97 309.35 653.57 315.8C658.17 322.25 671.98 292.8 671.98 292.8L664.61 274.39L525.61 247.69L505.36 269.76Z" fill="#FFB9B9"/>
<path id="Vector_2" opacity="0.05" d="M505.36 269.76C505.36 269.76 533.9 282.65 547.71 282.65C547.71 282.65 562.44 286.33 570.71 290.02C578.98 293.71 611.22 295.54 611.22 295.54C611.22 295.54 648.97 309.35 653.57 315.8C658.17 322.25 671.98 292.8 671.98 292.8L664.61 274.39L525.61 247.69L505.36 269.76Z" fill="black"/>
<path id="Vector_3" d="M646.23 310.28C646.23 310.28 663.72 333.28 656.36 347.11C649 360.94 651.76 360.92 656.36 361.84C660.96 362.76 686.74 368.29 689.51 348.03C692.28 327.77 697.8 282.66 697.8 282.66L660 278.97C660 278.97 670.17 313.04 646.23 310.28Z" fill="#737A9D"/>
<path id="Vector_4" d="M428.94 239.38L508.12 276.21C508.12 276.21 532.98 256.87 531.12 246.75L439.05 224.65L428.94 239.38Z" fill="#4C4C78"/>
<path id="Vector_5" opacity="0.1" d="M428.94 239.38L508.12 276.21C508.12 276.21 532.98 256.87 531.12 246.75L439.05 224.65L428.94 239.38Z" fill="black"/>
<path id="Vector_6" d="M761.32 287.26L753 307.51L733.7 312.09C728.292 307.577 722.508 303.535 716.41 300.01C706.02 294.01 692.35 288.14 679.41 289.07C679.41 289.07 627.85 280.78 625.09 277.07C625.09 277.07 591.94 269.7 584.58 270.62C581.03 271.06 573.4 268.51 566.46 265.74C559.01 262.74 552.35 259.57 552.35 259.57L576.29 221.82C579.082 223.022 581.956 224.024 584.89 224.82C594.04 227.5 610.51 230.98 634.3 230.98C672.97 230.98 726.37 270.57 726.37 270.57C726.37 270.57 726.9 270.75 727.81 271.02C731.81 272.23 743.21 275.08 748.47 270.57C754.87 265.16 761.32 287.26 761.32 287.26Z" fill="#FFB9B9"/>
<path id="Vector_7" opacity="0.1" d="M761.32 287.26L753 307.51L733.7 312.09C728.292 307.577 722.508 303.535 716.41 300.01C744.49 302.12 727.72 271.12 727.72 271.12H727.78C731.78 272.33 743.18 275.18 748.44 270.67C754.87 265.16 761.32 287.26 761.32 287.26Z" fill="black"/>
<path id="Vector_8" d="M716.52 300.79C716.52 300.79 738.79 332.02 729.42 349.61C720.05 367.2 723.56 367.19 729.42 368.37C735.28 369.55 768.11 376.58 771.62 350.79C774.32 330.96 771.95 292.9 770.71 276.38C770.631 275.337 770.345 274.32 769.869 273.389C769.394 272.458 768.738 271.63 767.939 270.955C767.141 270.279 766.216 269.769 765.219 269.454C764.222 269.139 763.172 269.026 762.13 269.12L729.56 272.12C729.56 272.12 747 304.31 716.52 300.79Z" fill="#737A9D"/>
<path id="Vector_9" d="M187.71 331.45L188.63 376.57L198.76 383.93H233.75L240.19 374.73V331.45L230.06 322.24H196.92L187.71 331.45Z" fill="#FFE8D6"/>
<path id="Vector_10" opacity="0.2" d="M193.23 332.37C193.23 332.37 199.68 373.8 193.23 377.49L188.63 376.57L187.71 332.38L193.23 332.37Z" fill="white"/>
<path id="Vector_11" d="M268.73 328.69L276.1 321.32H311.1L318.47 328.69C318.47 328.69 327.68 355.39 320.31 372.88L312 381.17H277L268.71 373.8L268.73 328.69Z" fill="#FFE8D6"/>
<path id="Vector_12" opacity="0.69" d="M187.71 331.45L188.63 376.57L198.76 383.93H233.75L240.19 374.73V331.45L230.06 322.24H196.92L187.71 331.45Z" fill="#6B705C"/>
<path id="Vector_13" opacity="0.57" d="M268.73 328.69L276.1 321.32H311.1L318.47 328.69C318.47 328.69 327.68 355.39 320.31 372.88L312 381.17H277L268.71 373.8L268.73 328.69Z" fill="#6B705C"/>
<path id="Vector_14" opacity="0.2" d="M277 330.53C277 330.53 284.37 362.76 277 373.8H268.71V328.69L277 330.53Z" fill="white"/>
<path id="Vector_15" d="M240.19 175.85C240.19 175.85 243.87 211.76 243.87 216.36C243.87 220.96 242.03 251.36 247.55 280.81C253.07 310.26 243.87 347.09 243.87 347.09H274.25L287.14 247.65L277.93 195.17L274.25 178.6L240.19 175.85Z" fill="#FFB9B9"/>
<path id="Vector_16" opacity="0.05" d="M240.19 175.85C240.19 175.85 243.87 211.76 243.87 216.36C243.87 220.96 242.03 251.36 247.55 280.81C253.07 310.26 243.87 347.09 243.87 347.09H274.25L287.14 247.65L277.93 195.17L274.25 178.6L240.19 175.85Z" fill="black"/>
<path id="Vector_17" d="M234.67 84.7C234.67 84.7 194.16 85.62 226.38 152.83C226.38 152.83 234.67 180.45 234.67 185.06C234.67 189.67 276.1 189.66 280.67 185.06C285.24 180.46 273.3 142.71 273.3 125.21C273.3 107.71 261.37 79.18 234.67 84.7Z" fill="#CBCDDA"/>
<path id="Vector_18" opacity="0.05" d="M234.67 84.7C234.67 84.7 194.16 85.62 226.38 152.83C226.38 152.83 234.67 180.45 234.67 185.06C234.67 189.67 276.1 189.66 280.67 185.06C285.24 180.46 273.3 142.71 273.3 125.21C273.3 107.71 261.37 79.18 234.67 84.7Z" fill="black"/>
<path id="Vector_19" d="M185.87 45.09C185.87 45.09 220.87 82.84 250.32 55.22L246.64 152.82C246.64 152.82 198.76 94.82 165.64 99.42L185.87 45.09Z" fill="#FFB9B9"/>
<path id="Vector_20" opacity="0.1" d="M584.85 224.93C583.45 235.72 579.05 258.44 566.42 265.8C558.97 262.8 552.31 259.63 552.31 259.63L576.25 221.88C579.041 223.099 581.915 224.118 584.85 224.93Z" fill="black"/>
<path id="Vector_21" d="M582.7 219.09C582.7 219.09 579.94 264.21 557.84 267.89L424.36 243.81C417.882 242.633 411.791 239.886 406.62 235.81C401.23 231.57 394.62 225.81 390.71 220.53C388.59 217.65 387.31 214.9 387.52 212.63C388.44 202.5 428.95 178.56 415.14 136.21C417.103 134.655 419.287 133.402 421.62 132.49C433.15 127.7 459.69 124.18 498 163.83C498 163.88 568.89 220.97 582.7 219.09Z" fill="#4C4C78"/>
<path id="Vector_22" d="M221.78 335.13L222.7 380.25L232.82 387.62H267.81L274.26 378.41V335.13L264.13 325.93H230.98L221.78 335.13Z" fill="#6B705C"/>
<path id="Vector_23" opacity="0.2" d="M227.3 336.09C227.3 336.09 233.75 377.52 227.3 381.21L222.7 380.29L221.78 336.09H227.3Z" fill="white"/>
<path id="Vector_24" d="M323.06 331.45L330.43 324.08H365.43L372.8 331.45C372.8 331.45 382.01 358.15 374.64 375.64L366.35 383.93H331.35L323.06 376.56V331.45Z" fill="#6B705C"/>
<path id="Vector_25" opacity="0.2" d="M331.34 333.29C331.34 333.29 338.71 365.52 331.34 376.56H323.05V331.45L331.34 333.29Z" fill="white"/>
<path id="Vector_26" d="M274 348.95H323.81C327.71 348.95 330.87 352.45 330.87 356.78C330.87 361.1 327.71 364.61 323.81 364.61H274C269.77 364.61 266.49 360.52 267 355.87C267.41 351.92 270.43 348.95 274 348.95Z" fill="#6B705C"/>
<path id="Vector_27" opacity="0.1" d="M417.89 205.31C408.04 212.21 397.66 216.73 390.7 220.58C388.58 217.7 387.3 214.95 387.51 212.68C388.43 202.55 428.94 178.61 415.13 136.26C417.093 134.705 419.277 133.452 421.61 132.54C423.773 132.494 425.924 132.199 428.02 131.66C428.02 131.66 436.3 192.42 417.89 205.31Z" fill="black"/>
<path id="Vector_28" d="M211.19 116.46C211.19 116.46 225 130.27 238.35 139.02C250.67 147.09 228.68 65.82 228.68 65.82C228.68 65.82 242.32 54.82 250.33 48.29C255.679 43.8891 262.495 41.6743 269.41 42.09C287.84 43.28 321.6 51.03 348.84 88.39C388.43 142.71 424.34 131.66 424.34 131.66C424.34 131.66 432.63 192.43 414.21 205.32C395.79 218.21 375.54 222.81 379.21 230.18C382.88 237.55 362.64 194.27 316.6 186.91C270.56 179.55 219.92 147.32 220.85 131.67C220.86 131.66 207.51 121.09 211.19 116.46Z" fill="#CBCDDA"/>
<path id="Vector_29" opacity="0.1" d="M201.52 69.09C201.515 66.4281 201.281 63.7716 200.82 61.15C188.76 55.15 190.47 46.99 190.47 46.99L170.21 101.31C177.62 100.31 185.77 102.39 193.95 106.31C204.72 97.8 201.52 83.78 201.52 69.09Z" fill="black"/>
<path id="Vector_30" d="M161.01 114.17C186.437 114.17 207.05 93.5572 207.05 68.13C207.05 42.7028 186.437 22.09 161.01 22.09C135.583 22.09 114.97 42.7028 114.97 68.13C114.97 93.5572 135.583 114.17 161.01 114.17Z" fill="#FFB9B9"/>
<path id="Vector_31" opacity="0.1" d="M119.18 78.51C118.33 81.24 117.02 84.05 114.55 85.51C111.55 87.29 107.41 86.41 104.74 84.11C102.07 81.81 100.63 78.37 99.88 74.93C98.7997 69.9492 98.9715 64.7782 100.38 59.88C101.58 55.73 103.65 51.88 104.52 47.63C105.45 43.11 104.98 38.38 106.02 33.88C107.43 27.78 111.45 22.67 115.37 17.78C116.598 15.9135 118.191 14.3138 120.052 13.0767C121.912 11.8396 124.004 10.9904 126.2 10.58L145.47 4.76999C149.123 3.54645 152.878 2.64961 156.69 2.09C161.591 1.58829 166.542 2.02267 171.28 3.37C175.053 4.31908 178.633 5.91614 181.86 8.09C185.057 10.4653 187.873 13.3148 190.21 16.54C200.4 29.86 206.21 51.65 216.72 64.76C212.57 66.04 208.42 61.76 204.27 63.06C203.68 63.3143 203.023 63.367 202.4 63.21C201.783 62.8749 201.299 62.3384 201.03 61.69C197.373 55.3015 191.617 50.3759 184.74 47.75C179.64 45.82 172.74 45.83 169.95 50.51C168.06 53.67 168.82 57.66 169.32 61.31C169.82 64.96 169.73 69.31 166.84 71.56C165.243 72.6393 163.384 73.2681 161.46 73.38C152.491 74.5556 143.371 73.6628 134.8 70.77C131.8 69.77 128.75 66.64 125.58 67.64C121.3 68.99 120.31 74.88 119.18 78.51Z" fill="black"/>
<path id="Vector_32" d="M118.17 77.5C117.32 80.23 116.01 83.04 113.54 84.5C110.54 86.28 106.4 85.4 103.73 83.1C101.06 80.8 99.62 77.36 98.87 73.92C97.7897 68.9391 97.9615 63.7682 99.37 58.87C100.57 54.72 102.64 50.87 103.51 46.62C104.44 42.1 103.97 37.37 105.01 32.87C106.42 26.77 110.44 21.66 114.36 16.77C115.588 14.9035 117.181 13.3038 119.042 12.0667C120.902 10.8296 122.994 9.98047 125.19 9.57001L144.46 3.76001C148.114 2.53987 151.868 1.64635 155.68 1.09C160.581 0.588292 165.532 1.02267 170.27 2.37C174.043 3.31908 177.623 4.91614 180.85 7.09C184.047 9.46529 186.863 12.3148 189.2 15.54C199.39 28.86 205.2 50.65 215.71 63.76C211.56 65.04 207.41 60.76 203.26 62.06C202.67 62.3143 202.013 62.367 201.39 62.21C200.765 61.8785 200.274 61.3416 200 60.69C196.343 54.3015 190.587 49.3759 183.71 46.75C178.61 44.82 171.71 44.83 168.92 49.51C167.03 52.67 167.79 56.66 168.29 60.31C168.79 63.96 168.7 68.31 165.81 70.56C164.213 71.6393 162.354 72.2681 160.43 72.38C151.461 73.5556 142.341 72.6628 133.77 69.77C130.77 68.77 127.72 65.64 124.55 66.64C120.29 67.98 119.3 73.87 118.17 77.5Z" fill="#B96B6B"/>
<g id="Group" opacity="0.1">
<path id="Vector_33" opacity="0.1" d="M231.8 63.31L228.68 65.83C228.68 65.83 241.57 113.46 242.08 132.17C248.66 130.39 236 79.43 231.8 63.31Z" fill="black"/>
<path id="Vector_34" opacity="0.1" d="M416 197.95C397.59 210.84 377.33 215.44 381 222.81C384.67 230.18 364.43 186.9 318.39 179.54C275.2 172.63 227.96 143.84 223.04 127.38C216.14 121.48 211.12 116.47 211.12 116.47C207.44 121.07 220.79 131.66 220.79 131.66C219.87 147.31 270.51 179.54 316.54 186.9C362.57 194.26 382.83 237.54 379.15 230.17C375.47 222.8 395.72 218.17 414.15 205.31C419.42 201.62 422.5 194.01 424.22 185.02C422.44 190.71 419.8 195.32 416 197.95Z" fill="black"/>
</g>
<path id="Vector_35" d="M323.06 286.34C320.3 290.02 318.46 327.77 318.46 327.77C318.46 327.77 329.46 382.09 295.46 376.57C261.46 371.05 290.86 332.38 290.86 332.38L286.26 278.98C268.77 232.98 272.45 199.8 272.45 199.8L269.18 169.73L267.84 157.45L307.43 148.24C306.35 149.68 306.81 158.66 307.78 169.09C309.29 185.43 312.03 205.32 312.03 205.32C320.29 214.52 325.82 282.65 323.06 286.34Z" fill="#FFB9B9"/>
<path id="Vector_36" opacity="0.1" d="M266.89 65.37C266.89 65.37 226.38 66.29 258.6 133.5C258.6 133.5 266.89 161.12 266.89 165.73C266.89 170.34 308.32 170.33 312.89 165.73C317.46 161.13 305.52 123.38 305.52 105.88C305.52 88.38 293.59 59.84 266.89 65.37Z" fill="black"/>
<path id="Vector_37" opacity="0.1" d="M307.75 169.09C299.15 171.44 278.07 171.65 269.14 169.73L267.8 157.45L307.39 148.24C306.33 149.67 306.79 158.65 307.75 169.09Z" fill="black"/>
<path id="Vector_38" d="M265.05 65.37C265.05 65.37 224.54 66.29 256.76 133.5C256.76 133.5 265.05 161.12 265.05 165.73C265.05 170.34 306.48 170.33 311.05 165.73C315.62 161.13 303.68 123.38 303.68 105.88C303.68 88.38 291.75 59.84 265.05 65.37Z" fill="#CBCDDA"/>
<g id="Group_2" opacity="0.8">
<path id="Vector_39" opacity="0.8" d="M93.665 399.631C93.665 399.631 79.495 394.831 72.665 407.321C70.8656 410.706 69.9497 414.491 70.0021 418.324C70.0546 422.158 71.0737 425.916 72.965 429.251C77.445 437.351 86.675 447.861 104.165 446.931C119.005 446.141 123.935 434.811 125.275 424.281C125.788 420.331 125.278 416.316 123.794 412.619C122.311 408.923 119.904 405.669 116.803 403.17C113.702 400.67 110.012 399.008 106.085 398.343C102.158 397.678 98.126 398.032 94.375 399.371L93.665 399.631Z" fill="#6B705C"/>
<path id="Vector_40" opacity="0.1" d="M75.975 430.361C74.0837 427.026 73.0646 423.268 73.0121 419.434C72.9597 415.601 73.8756 411.816 75.675 408.431C82.495 395.941 96.675 400.741 96.675 400.741L97.405 400.481C102.807 398.526 108.745 398.657 114.055 400.851C111.122 399.101 107.836 398.025 104.436 397.699C101.036 397.374 97.6067 397.809 94.395 398.971L93.665 399.231C93.665 399.231 79.495 394.431 72.665 406.921C70.8656 410.306 69.9497 414.091 70.0021 417.924C70.0546 421.758 71.0737 425.516 72.965 428.851C75.965 434.181 80.965 440.551 88.965 444.021C83.4714 440.736 78.9797 436.012 75.975 430.361Z" fill="white"/>
<path id="Vector_41" opacity="0.2" d="M86.345 405.631C86.345 405.631 91.595 409.761 104.345 405.631H86.345Z" fill="black"/>
<path id="Vector_42" opacity="0.8" d="M85.225 375.631C85.225 375.631 94.225 400.031 93.485 406.411L100.615 405.661C100.615 405.661 88.615 384.271 91.615 375.661L85.225 375.631Z" fill="#6B705C"/>
<path id="Vector_43" opacity="0.2" d="M85.225 375.631C85.225 375.631 94.225 400.031 93.485 406.411L100.615 405.661C100.615 405.661 88.615 384.271 91.615 375.661L85.225 375.631Z" fill="black"/>
<path id="Vector_44" opacity="0.8" d="M121.985 377.631C121.985 377.631 107.805 370.381 101.465 376.371C95.125 382.361 94.145 397.671 94.145 397.671C94.145 397.671 117.265 400.861 121.985 377.631Z" fill="#6B705C"/>
<path id="Vector_45" opacity="0.1" d="M121.985 377.631C121.985 377.631 107.805 370.381 101.465 376.371C95.125 382.361 94.145 397.671 94.145 397.671C94.145 397.671 117.265 400.861 121.985 377.631Z" fill="white"/>
<path id="Vector_46" opacity="0.8" d="M94.145 397.631C94.145 397.631 97.865 379.861 121.985 377.631" stroke="#6B705C" stroke-miterlimit="10"/>
</g>
<path id="Vector_47" opacity="0.66" d="M30.2656 351.97C30.2656 351.97 31.6556 350.42 29.0456 349.8V347.25H30.6156C30.6143 344.167 29.555 341.179 27.6147 338.783C25.6744 336.388 22.9707 334.731 19.9556 334.09V331H20.3656V327H10.2656V331H10.5555V334.13C7.58036 334.805 4.92291 336.472 3.01881 338.855C1.1147 341.239 0.0769082 344.199 0.075554 347.25H1.47556V349.7C1.47556 349.7 -1.84444 351.27 1.47556 354.07C4.79556 356.87 4.27556 358.96 4.27556 358.96C4.27556 358.96 2.87556 364.2 0.0855561 364.9V413.65C0.0855561 416.522 1.22657 419.277 3.25759 421.308C5.28861 423.339 8.04326 424.48 10.9156 424.48H19.4756C22.3392 424.469 25.0821 423.325 27.1041 421.297C29.1262 419.27 30.2629 416.524 30.2656 413.66V364.9C30.2656 364.9 25.3756 361.23 26.2656 358.96C27.4263 356.535 28.7632 354.199 30.2656 351.97Z" fill="#6B705C"/>
</g>
</svg>
