<svg width="883" height="625" viewBox="0 0 883 625" fill="none" xmlns="http://www.w3.org/2000/svg">
<g id="undraw_personal_training_0dqn 1" clip-path="url(#clip0)">
<path id="Vector" d="M469.975 275.342L465.737 281.903L522.322 318.453L526.56 311.892L469.975 275.342Z" fill="#2F2E41"/>
<path id="Vector_2" d="M529.363 318.35C536.384 307.481 539.873 297.246 537.156 295.491C534.438 293.735 526.543 301.124 519.522 311.994C512.501 322.864 509.012 333.099 511.729 334.854C514.447 336.609 522.342 329.22 529.363 318.35Z" fill="#2F2E41"/>
<path id="Vector_3" d="M472.777 281.801C479.798 270.931 483.287 260.696 480.569 258.941C477.852 257.185 469.957 264.574 462.936 275.444C455.914 286.314 452.426 296.549 455.143 298.304C457.86 300.059 465.755 292.67 472.777 281.801Z" fill="#2F2E41"/>
<path id="Vector_4" d="M512.401 261.939C512.401 261.939 468.9 304.571 487.17 309.791C505.441 315.011 526.321 270.64 526.321 270.64L512.401 261.939Z" fill="#A0616A"/>
<path id="Vector_5" d="M555.902 405.493L550.682 429.854L589.833 431.594L583.743 405.493H555.902Z" fill="#A0616A"/>
<path id="Vector_6" d="M679.446 556.007L674.226 580.368L713.377 582.108L707.286 556.007H679.446Z" fill="#A0616A"/>
<path id="Vector_7" d="M610.714 242.799L614.194 256.719C614.194 256.719 517.621 237.579 522.841 286.3C528.062 335.021 550.682 382.003 550.682 382.003C550.682 382.003 548.942 397.663 552.422 400.273C555.902 402.883 552.422 411.584 552.422 411.584C552.422 411.584 584.613 415.934 585.483 408.103C585.949 402.869 585.656 397.594 584.613 392.443C584.613 392.443 586.353 392.443 584.613 383.743C582.873 375.043 575.844 304.877 570.624 295.307C570.624 295.307 616.804 330.671 641.165 326.321C641.165 326.321 637.685 361.122 651.605 407.233C665.525 453.345 665.525 458.565 665.525 458.565C665.525 458.565 682.056 546.437 677.706 556.878L676.836 561.228H709.027C709.027 561.228 706.416 515.116 709.027 509.026C711.637 502.936 711.637 450.735 696.846 424.634C686.372 406.15 688.323 352.557 694.052 331.374C698.863 313.585 700.078 299.893 697.258 281.682C694.242 262.207 685.236 252.027 674.226 242.799H610.714Z" fill="#2F2E41"/>
<path id="Vector_8" d="M636.38 111.86C653.678 111.86 667.7 97.8375 667.7 80.5394C667.7 63.2414 653.678 49.2186 636.38 49.2186C619.081 49.2186 605.059 63.2414 605.059 80.5394C605.059 97.8375 619.081 111.86 636.38 111.86Z" fill="#A0616A"/>
<path id="Vector_9" d="M628.114 102.725C628.114 102.725 637.685 130.566 636.815 135.786C635.945 141.006 664.655 125.346 664.655 125.346C664.655 125.346 653.345 97.5049 656.825 89.6747L628.114 102.725Z" fill="#A0616A"/>
<path id="Vector_10" d="M662.915 115.775L632.465 127.956L634.204 138.396C634.204 138.396 631.594 141.876 632.465 143.616C633.335 145.356 621.154 152.316 622.894 154.926C624.634 157.537 612.454 167.977 613.324 170.587C614.194 173.197 585.483 188.857 601.144 219.308C601.144 219.308 609.263 229.864 608.246 242.346C608.21 242.785 608.163 243.226 608.104 243.669C606.364 256.719 674.226 241.929 674.226 241.929V227.138C674.226 227.138 680.316 224.528 679.446 213.218C678.576 201.908 673.356 207.128 679.446 201.038C685.536 194.948 685.536 195.818 684.666 190.597C684.319 188.513 684.249 181.018 684.29 172.765C684.37 155.329 678.691 138.354 668.136 124.476L662.915 115.775Z" fill="#6B705C"/>
<path id="Vector_11" d="M646.385 138.396L589.833 197.558L507.181 262.809L525.451 277.6L677.706 175.807C677.706 175.807 690.756 120.126 646.385 138.396Z" fill="#6B705C"/>
<path id="Vector_12" d="M558.512 418.544C558.512 418.544 552.422 408.103 548.072 411.584L517.621 435.944C517.621 435.944 463.68 451.605 515.881 463.785C515.881 463.785 544.592 468.135 550.682 463.785C556.772 459.435 566.343 460.305 568.953 462.045C571.563 463.785 604.624 461.175 604.624 454.215C604.624 447.255 586.39 416.835 586.39 416.835C586.39 416.835 575.913 428.984 558.512 418.544Z" fill="#2F2E41"/>
<path id="Vector_13" d="M682.056 569.058C682.056 569.058 675.966 558.618 671.615 562.098L641.165 586.458C641.165 586.458 587.223 602.119 639.425 614.299C639.425 614.299 668.135 618.649 674.226 614.299C680.316 609.949 689.886 610.819 692.496 612.559C695.106 614.299 728.167 611.689 728.167 604.729C728.167 597.769 709.933 567.35 709.933 567.35C709.933 567.35 699.456 579.498 682.056 569.058Z" fill="#2F2E41"/>
<path id="Vector_14" d="M598.844 68.1181C598.844 68.1181 604.14 21.5661 649.433 34.7838C649.433 34.7838 681.475 28.2663 692.792 68.2854L704.279 110.243L699.021 107.51L696.697 112.86L688.306 115.157L684.56 108.064L682.981 116.795L625.03 128.512C625.03 128.512 644.629 106.119 644.49 73.3227L638.718 79.6623L598.844 68.1181Z" fill="#2F2E41"/>
<path id="Vector_15" d="M287.622 30.265H215.175V120.608H287.622V30.265Z" fill="#2F2E41"/>
<path id="Vector_16" d="M155.351 451.681L145.472 488.038L161.938 500.157L166.328 496.852L174.012 459.393L155.351 451.681Z" fill="#FFB8B8"/>
<path id="Vector_17" d="M279.389 448.376L276.096 492.445H296.952V451.681L279.389 448.376Z" fill="#FFB8B8"/>
<path id="Vector_18" d="M213.528 169.635V196.077L254.143 202.687L289.268 188.365L282.682 171.838L213.528 169.635Z" fill="#FFB8B8"/>
<path id="Vector_19" d="M246.459 191.67L211.333 185.06L202.552 256.673L180.598 345.914C180.598 345.914 147.668 421.934 152.059 439.562L154.254 445.07L152.059 454.986L174.012 463.8L182.794 449.477C182.794 449.477 189.38 459.393 200.356 438.46C211.333 417.527 257.436 287.521 257.436 287.521L265.119 309.556C263.132 316.354 262.756 323.521 264.022 330.489C266.217 341.507 268.412 375.661 268.412 375.661C268.412 375.661 256.338 435.155 272.803 439.562L276.096 452.783L299.147 454.986L303.538 441.765C303.538 441.765 325.492 434.053 320.003 395.492C314.515 356.931 312.32 230.231 312.32 230.231L290.695 176.715L246.459 191.67Z" fill="#2F2E41"/>
<path id="Vector_20" d="M152.058 485.835C152.058 485.835 146.57 481.428 144.375 482.53C142.179 483.631 119.128 513.378 119.128 513.378C119.128 513.378 94.9791 532.108 112.542 534.311C130.105 536.515 178.403 512.277 178.403 506.768C178.403 501.259 168.254 487.463 168.254 487.463C168.254 487.463 160.84 493.547 152.058 485.835Z" fill="#2F2E41"/>
<path id="Vector_21" d="M273.901 482.53C273.901 482.53 293.659 481.298 296.952 484.668C300.245 488.038 299.147 504.564 299.147 504.564C299.147 504.564 301.343 534.311 283.78 534.311C266.217 534.311 270.608 514.48 270.608 514.48L273.901 482.53Z" fill="#2F2E41"/>
<path id="Vector_22" d="M254.143 72.682C269.298 72.682 281.585 60.3503 281.585 45.1385C281.585 29.9266 269.298 17.5949 254.143 17.5949C238.987 17.5949 226.701 29.9266 226.701 45.1385C226.701 60.3503 238.987 72.682 254.143 72.682Z" fill="#FFB8B8"/>
<path id="Vector_23" d="M236.031 62.2154C236.031 62.2154 251.398 80.945 220.663 95.2677C189.928 109.59 242.617 169.084 242.617 169.084C242.617 169.084 304.087 145.948 298.599 100.776C298.599 100.776 261.277 94.1659 270.059 63.3172L236.031 62.2154Z" fill="#FFB8B8"/>
<path id="Vector_24" d="M219.566 94.1659C219.566 94.1659 194.319 90.8607 193.221 111.794C192.124 132.727 193.221 183.407 193.221 183.407C193.221 183.407 182.245 227.477 187.733 266.037C187.733 266.037 181.147 311.209 198.71 309.005C216.273 306.802 203.101 262.732 203.101 262.732L210.784 191.119L207.491 138.236L221.761 106.285L219.566 94.1659Z" fill="#FFB8B8"/>
<path id="Vector_25" d="M292.225 99.0332C292.225 99.0332 316.161 98.5729 317.259 116.201C318.357 133.829 309.575 187.814 309.575 187.814L296.403 194.424L284.329 156.965L292.225 99.0332Z" fill="#FFB8B8"/>
<path id="Vector_26" d="M299.147 189.467L296.952 194.975L303.538 211.501C303.538 211.501 277.194 232.434 279.389 236.841C281.584 241.248 293.659 231.333 293.659 231.333L311.222 240.147C311.222 240.147 325.492 224.722 318.906 210.4C315.257 202.7 312.205 194.731 309.776 186.565C309.776 186.565 300.245 186.161 299.147 189.467Z" fill="#FFB8B8"/>
<path id="Vector_27" d="M214.626 90.3098L211.333 126.667C211.333 126.667 195.966 142.092 213.528 163.025L211.333 179.551C211.333 179.551 251.947 177.347 259.631 179.551C267.315 181.754 291.044 177.777 291.044 177.777L291.464 165.228C291.464 165.228 302.44 149.804 299.147 126.667C295.854 103.531 299.147 95.8185 299.147 95.8185L291.464 94.7168C291.464 94.7168 286.524 128.32 252.496 131.625C252.496 131.625 210.235 135.481 222.31 90.3098L214.626 90.3098Z" fill="#E6E6E6"/>
<path id="Vector_28" d="M256.887 0.517906C256.887 0.517906 228.347 -1.25791 221.761 16.5551C215.175 34.3681 203.649 43.7198 203.649 43.7198C203.649 43.7198 185.494 56.3868 194.572 78.9993C194.572 78.9993 166.328 98.0492 184.989 114.971C184.989 114.971 183.891 131.894 194.868 143.472C194.868 143.472 203.649 147.925 200.356 150.597C197.063 153.269 222.31 151.488 220.115 127.44C217.919 103.393 232.738 86.4537 232.738 86.4537C232.738 86.4537 218.468 55.2753 225.054 44.5876C229.053 38.0986 230.77 33.2596 234.09 30.459C235.939 28.9361 237.653 27.2567 239.214 25.4395C240.686 23.5676 242.69 22.1851 244.963 21.4737C247.236 20.7623 249.671 20.7553 251.947 21.4536C261.826 24.1255 264.022 32.1413 264.022 32.1413C264.022 32.1413 271.157 51.2902 283.231 60.1967C295.306 69.1032 273.901 84.6894 273.901 84.6894C273.901 84.6894 277.621 103.04 287.287 113.904C296.952 124.769 284.501 134.239 283.78 135.456C282.133 138.236 275.558 155.786 302.72 155.863C302.72 155.863 309.027 142.581 317.808 134.566C326.589 126.55 320.003 103.393 320.003 103.393C320.003 103.393 333.176 95.3772 318.906 75.783C318.906 75.783 323.296 57.9701 311.222 46.3917C311.222 46.3917 294.208 -5.7166 256.887 0.517906Z" fill="#2F2E41"/>
<path id="Vector_29" d="M224.505 48.9945C226.021 48.9945 227.249 47.0215 227.249 44.5876C227.249 42.1537 226.021 40.1806 224.505 40.1806C222.99 40.1806 221.761 42.1537 221.761 44.5876C221.761 47.0215 222.99 48.9945 224.505 48.9945Z" fill="#FFB8B8"/>
<path id="Vector_30" d="M93.4334 499.035H26.0705V506.845H93.4334V499.035Z" fill="#2F2E41"/>
<path id="Vector_31" d="M93.4335 526.371C96.6686 526.371 99.2911 515.881 99.2911 502.94C99.2911 490 96.6686 479.51 93.4335 479.51C90.1984 479.51 87.5758 490 87.5758 502.94C87.5758 515.881 90.1984 526.371 93.4335 526.371Z" fill="#2F2E41"/>
<path id="Vector_32" d="M26.0705 526.371C29.3056 526.371 31.9282 515.881 31.9282 502.94C31.9282 490 29.3056 479.51 26.0705 479.51C22.8354 479.51 20.2128 490 20.2128 502.94C20.2128 515.881 22.8354 526.371 26.0705 526.371Z" fill="#2F2E41"/>
<path id="Vector_33" d="M77.4423 499.035H10.0795V506.845H77.4423V499.035Z" fill="#2F2E41"/>
<path id="Vector_34" d="M77.4424 526.371C80.6775 526.371 83.3001 515.881 83.3001 502.94C83.3001 490 80.6775 479.51 77.4424 479.51C74.2073 479.51 71.5848 490 71.5848 502.94C71.5848 515.881 74.2073 526.371 77.4424 526.371Z" fill="#2F2E41"/>
<path id="Vector_35" d="M10.0795 526.371C13.3146 526.371 15.9371 515.881 15.9371 502.94C15.9371 490 13.3146 479.51 10.0795 479.51C6.84437 479.51 4.2218 490 4.2218 502.94C4.2218 515.881 6.84437 526.371 10.0795 526.371Z" fill="#2F2E41"/>
<path id="Vector_36" d="M843.781 577.76H776.418V585.57H843.781V577.76Z" fill="#2F2E41"/>
<path id="Vector_37" d="M843.781 605.096C847.016 605.096 849.638 594.606 849.638 581.665C849.638 568.725 847.016 558.235 843.781 558.235C840.546 558.235 837.923 568.725 837.923 581.665C837.923 594.606 840.546 605.096 843.781 605.096Z" fill="#2F2E41"/>
<path id="Vector_38" d="M776.418 605.096C779.653 605.096 782.275 594.606 782.275 581.665C782.275 568.725 779.653 558.235 776.418 558.235C773.183 558.235 770.56 568.725 770.56 581.665C770.56 594.606 773.183 605.096 776.418 605.096Z" fill="#2F2E41"/>
</g>
<defs>
<clipPath id="clip0">
<rect width="882.655" height="624.264" fill="white"/>
</clipPath>
</defs>
</svg>
